<svg width="163" height="170" viewBox="0 0 163 170" fill="none" xmlns="http://www.w3.org/2000/svg">
<path d="M81 159C122.421 159 156 125.421 156 84C156 42.5786 122.421 9 81 9C39.5786 9 6 42.5786 6 84C6 125.421 39.5786 159 81 159Z" fill="url(#paint0_linear_2_1603)"/>
<g filter="url(#filter0_d_2_1603)">
<path d="M81.5 159C122.921 159 156.5 125.421 156.5 84C156.5 42.5786 122.921 9 81.5 9C40.0786 9 6.5 42.5786 6.5 84C6.5 125.421 40.0786 159 81.5 159Z" fill="url(#paint1_linear_2_1603)"/>
<path d="M124 52H38C35.2386 52 33 54.2386 33 57V162C33 164.761 35.2386 167 38 167H124C126.761 167 129 164.761 129 162V57C129 54.2386 126.761 52 124 52Z" fill="white"/>
</g>
<path d="M72 62H46C44.3431 62 43 63.3431 43 65C43 66.6569 44.3431 68 46 68H72C73.6569 68 75 66.6569 75 65C75 63.3431 73.6569 62 72 62Z" fill="#E1EBFA"/>
<path d="M72 104H46C44.3431 104 43 105.343 43 107C43 108.657 44.3431 110 46 110H72C73.6569 110 75 108.657 75 107C75 105.343 73.6569 104 72 104Z" fill="#E1EBFA"/>
<path d="M114 77H48C45.7909 77 44 78.7909 44 81V91C44 93.2091 45.7909 95 48 95H114C116.209 95 118 93.2091 118 91V81C118 78.7909 116.209 77 114 77Z" stroke="#FBAD01" stroke-width="2"/>
<path d="M114 118H48C45.2386 118 43 120.239 43 123V131C43 133.761 45.2386 136 48 136H114C116.761 136 119 133.761 119 131V123C119 120.239 116.761 118 114 118Z" fill="#DFEAFB"/>
<path d="M59 41C61.2091 41 63 39.2091 63 37C63 34.7909 61.2091 33 59 33C56.7909 33 55 34.7909 55 37C55 39.2091 56.7909 41 59 41Z" fill="white"/>
<path d="M81 41C83.2091 41 85 39.2091 85 37C85 34.7909 83.2091 33 81 33C78.7909 33 77 34.7909 77 37C77 39.2091 78.7909 41 81 41Z" fill="#FBAD01"/>
<path d="M103 41C105.209 41 107 39.2091 107 37C107 34.7909 105.209 33 103 33C100.791 33 99 34.7909 99 37C99 39.2091 100.791 41 103 41Z" fill="white"/>
<path d="M92 97C94.7614 97 97 94.7614 97 92C97 89.2386 94.7614 87 92 87C89.2386 87 87 89.2386 87 92C87 94.7614 89.2386 97 92 97Z" fill="#DFEAFB"/>
<path d="M95.907 113.37C95.107 113.37 94.36 113.37 93.68 113.327C92.8424 113.27 92.0367 112.984 91.3514 112.499C90.6662 112.014 90.128 111.349 89.796 110.578L85.577 102.24C85.2676 101.88 85.1131 101.412 85.1472 100.938C85.1813 100.464 85.4012 100.023 85.759 99.7109C86.0522 99.4753 86.4179 99.3484 86.794 99.3519C87.0709 99.3599 87.3428 99.428 87.5909 99.5512C87.8389 99.6745 88.0573 99.8501 88.231 100.066L90.147 102.681L90.176 102.715V92.7799C90.176 92.287 90.3718 91.8143 90.7204 91.4657C91.0689 91.1172 91.5416 90.9214 92.0345 90.9214C92.5274 90.9214 93.0001 91.1172 93.3487 91.4657C93.6972 91.8143 93.893 92.287 93.893 92.7799V99.2799C93.8714 99.0407 93.8999 98.7996 93.9766 98.5721C94.0534 98.3445 94.1767 98.1354 94.3387 97.9581C94.5007 97.7808 94.6978 97.6392 94.9176 97.5424C95.1373 97.4455 95.3749 97.3955 95.615 97.3955C95.8552 97.3955 96.0927 97.4455 96.3125 97.5424C96.5322 97.6392 96.7294 97.7808 96.8914 97.9581C97.0534 98.1354 97.1767 98.3445 97.2534 98.5721C97.3301 98.7996 97.3586 99.0407 97.337 99.2799V100.635C97.3154 100.396 97.3439 100.155 97.4206 99.9271C97.4974 99.6995 97.6207 99.4904 97.7827 99.3131C97.9447 99.1358 98.1418 98.9942 98.3616 98.8974C98.5813 98.8005 98.8189 98.7505 99.059 98.7505C99.2992 98.7505 99.5367 98.8005 99.7565 98.8974C99.9762 98.9942 100.173 99.1358 100.335 99.3131C100.497 99.4904 100.621 99.6995 100.697 99.9271C100.774 100.155 100.803 100.396 100.781 100.635V101.679C100.759 101.44 100.788 101.199 100.865 100.971C100.941 100.743 101.065 100.534 101.227 100.357C101.389 100.18 101.586 100.038 101.806 99.9414C102.025 99.8445 102.263 99.7945 102.503 99.7945C102.743 99.7945 102.981 99.8445 103.2 99.9414C103.42 100.038 103.617 100.18 103.779 100.357C103.941 100.534 104.065 100.743 104.141 100.971C104.218 101.199 104.247 101.44 104.225 101.679V108.016C104.191 109.965 103.31 113.251 100.211 113.251C99.986 113.261 98.08 113.371 95.911 113.371L95.907 113.37Z" fill="#FBAD01" stroke="white"/>
<defs>
<filter id="filter0_d_2_1603" x="0.5" y="0" width="162" height="170" filterUnits="userSpaceOnUse" color-interpolation-filters="sRGB">
<feFlood flood-opacity="0" result="BackgroundImageFix"/>
<feColorMatrix in="SourceAlpha" type="matrix" values="0 0 0 0 0 0 0 0 0 0 0 0 0 0 0 0 0 0 127 0" result="hardAlpha"/>
<feOffset dy="-3"/>
<feGaussianBlur stdDeviation="3"/>
<feColorMatrix type="matrix" values="0 0 0 0 0.788235 0 0 0 0 0.803922 0 0 0 0 0.85098 0 0 0 0.349 0"/>
<feBlend mode="normal" in2="BackgroundImageFix" result="effect1_dropShadow_2_1603"/>
<feBlend mode="normal" in="SourceGraphic" in2="effect1_dropShadow_2_1603" result="shape"/>
</filter>
<linearGradient id="paint0_linear_2_1603" x1="81" y1="9" x2="81" y2="159" gradientUnits="userSpaceOnUse">
<stop stop-color="#E3ECFA"/>
<stop offset="1" stop-color="#DAE7FF"/>
</linearGradient>
<linearGradient id="paint1_linear_2_1603" x1="81.5" y1="9" x2="81.5" y2="159" gradientUnits="userSpaceOnUse">
<stop stop-color="#F6F6F6"/>
<stop offset="1" stop-color="#EAEDF2"/>
</linearGradient>
</defs>
</svg>
