<svg width="32" height="32" viewBox="0 0 32 32" fill="none" xmlns="http://www.w3.org/2000/svg">
<path d="M24.8933 2.66667H22.36C19.4533 2.66667 17.92 4.2 17.92 7.10667V9.64001C17.92 12.5467 19.4533 14.08 22.36 14.08H24.8933C27.8 14.08 29.3333 12.5467 29.3333 9.64001V7.10667C29.3333 4.2 27.8 2.66667 24.8933 2.66667Z" fill="#17414A"/>
<path d="M9.65332 17.9067H7.11999C4.19999 17.9067 2.66666 19.44 2.66666 22.3467V24.88C2.66666 27.8 4.19999 29.3333 7.10666 29.3333H9.63999C12.5467 29.3333 14.08 27.8 14.08 24.8933V22.36C14.0933 19.44 12.56 17.9067 9.65332 17.9067Z" fill="#17414A"/>
<path d="M8.38666 14.1067C11.5457 14.1067 14.1067 11.5457 14.1067 8.38667C14.1067 5.2276 11.5457 2.66667 8.38666 2.66667C5.22759 2.66667 2.66666 5.2276 2.66666 8.38667C2.66666 11.5457 5.22759 14.1067 8.38666 14.1067Z" fill="#17414A"/>
<path d="M23.6133 29.3333C26.7724 29.3333 29.3333 26.7724 29.3333 23.6133C29.3333 20.4543 26.7724 17.8933 23.6133 17.8933C20.4543 17.8933 17.8933 20.4543 17.8933 23.6133C17.8933 26.7724 20.4543 29.3333 23.6133 29.3333Z" fill="#17414A"/>
</svg>
