<svg width="86" height="86" viewBox="0 0 86 86" fill="none" xmlns="http://www.w3.org/2000/svg">
<rect x="1" y="1" width="84" height="84" rx="42" stroke="#A5A5A5" stroke-width="2" stroke-dasharray="9 9"/>
<path d="M50.25 43.9062H35.75C35.2546 43.9062 34.8438 43.4954 34.8438 43C34.8438 42.5046 35.2546 42.0938 35.75 42.0938H50.25C50.7454 42.0938 51.1562 42.5046 51.1562 43C51.1562 43.4954 50.7454 43.9062 50.25 43.9062Z" fill="#292D32"/>
<path d="M43 51.1562C42.5046 51.1562 42.0938 50.7454 42.0938 50.25V35.75C42.0938 35.2546 42.5046 34.8438 43 34.8438C43.4954 34.8438 43.9062 35.2546 43.9062 35.75V50.25C43.9062 50.7454 43.4954 51.1562 43 51.1562Z" fill="#292D32"/>
</svg>
