<svg width="13" height="13" viewBox="0 0 13 13" fill="none" xmlns="http://www.w3.org/2000/svg">
<path fill-rule="evenodd" clip-rule="evenodd" d="M6.44443 11.5C9.20585 11.5 11.4444 9.26142 11.4444 6.5C11.4444 3.73858 9.20585 1.5 6.44443 1.5C3.683 1.5 1.44443 3.73858 1.44443 6.5C1.44443 9.26142 3.683 11.5 6.44443 11.5ZM6.94443 4C6.94443 3.72386 6.72057 3.5 6.44443 3.5C6.16828 3.5 5.94443 3.72386 5.94443 4V6.29289C5.94443 6.55811 6.04978 6.81246 6.23732 7L7.34087 8.10355C7.53614 8.29882 7.85272 8.29882 8.04798 8.10355C8.24324 7.90829 8.24324 7.59171 8.04798 7.39645L6.94443 6.29289V4Z" fill="#0E7D04"/>
</svg>
