<svg width="25" height="24" viewBox="0 0 25 24" fill="none" xmlns="http://www.w3.org/2000/svg">
<path d="M19.17 2H17.27C15.09 2 13.94 3.15 13.94 5.33V7.23C13.94 9.41 15.09 10.56 17.27 10.56H19.17C21.35 10.56 22.5 9.41 22.5 7.23V5.33C22.5 3.15 21.35 2 19.17 2Z" fill="#08242A"/>
<path d="M7.74 13.43H5.84C3.65 13.43 2.5 14.58 2.5 16.76V18.66C2.5 20.85 3.65 22 5.83 22H7.73C9.91 22 11.06 20.85 11.06 18.67V16.77C11.07 14.58 9.92 13.43 7.74 13.43Z" fill="#08242A"/>
<path d="M6.79 10.58C9.1593 10.58 11.08 8.6593 11.08 6.29C11.08 3.9207 9.1593 2 6.79 2C4.4207 2 2.5 3.9207 2.5 6.29C2.5 8.6593 4.4207 10.58 6.79 10.58Z" fill="#08242A"/>
<path d="M18.21 22C20.5793 22 22.5 20.0793 22.5 17.71C22.5 15.3407 20.5793 13.42 18.21 13.42C15.8407 13.42 13.92 15.3407 13.92 17.71C13.92 20.0793 15.8407 22 18.21 22Z" fill="#08242A"/>
</svg>
