<svg width="32" height="33" viewBox="0 0 32 33" fill="none" xmlns="http://www.w3.org/2000/svg">
<g clip-path="url(#clip0_117_526)">
<path d="M29.8305 15.4153H23.3221V23.0085H31.4576C31.7571 23.0085 32 22.7656 32 22.4661V17.5848C32 16.3866 31.0287 15.4153 29.8305 15.4153Z" fill="#1C4048"/>
<path d="M23.3221 16.5H29.8306C30.4297 16.5 30.9153 16.9856 30.9153 17.5847V23.0085H23.3221V16.5Z" fill="#AFB9D2"/>
<path d="M30.8721 23.0085C30.6083 21.1693 29.0307 19.7543 27.1186 19.7543C25.2065 19.7543 23.6289 21.1693 23.3651 23.0085H30.8721Z" fill="#959CB5"/>
<path d="M27.661 8.90675H23.322V11.0763H29.017C29.1667 11.0763 29.2881 10.9548 29.2881 10.8051V10.5339C29.2881 9.63525 28.5597 8.90675 27.661 8.90675Z" fill="#1C4048"/>
<path d="M22.7797 6.7373H3.25428C2.95478 6.7373 2.7119 6.98018 2.7119 7.27968V18.1271H1.62715C1.32734 18.1271 1.08478 18.37 1.08478 18.6695C1.08478 18.969 1.32734 19.2119 1.62715 19.2119H4.8814C5.18121 19.2119 5.42378 19.4547 5.42378 19.7542C5.42378 20.0537 5.18121 20.2966 4.8814 20.2966H2.7119V22.4661C2.7119 22.7656 2.95478 23.0085 3.25428 23.0085H23.3221V7.27968C23.3221 6.98012 23.0792 6.7373 22.7797 6.7373Z" fill="#17414A"/>
<path d="M13.0169 18.6695C15.7128 18.6695 17.8983 16.484 17.8983 13.7881C17.8983 11.0922 15.7128 8.90675 13.0169 8.90675C10.321 8.90675 8.13556 11.0922 8.13556 13.7881C8.13556 16.484 10.321 18.6695 13.0169 18.6695Z" fill="#08242A"/>
<path d="M11.1563 20.2966C10.5884 19.9574 9.93013 19.7543 9.22031 19.7543C8.5105 19.7543 7.85225 19.9574 7.28431 20.2966H0.542375C0.242563 20.2966 0 20.5395 0 20.839C0 21.1385 0.242563 21.3814 0.542375 21.3814H2.71188V22.4661C2.71188 22.7656 2.95475 23.0085 3.25425 23.0085H23.3221V20.2966H11.1563Z" fill="#08242A"/>
<path d="M27.1186 26.2627C28.6163 26.2627 29.8305 25.0486 29.8305 23.5509C29.8305 22.0531 28.6163 20.839 27.1186 20.839C25.6209 20.839 24.4067 22.0531 24.4067 23.5509C24.4067 25.0486 25.6209 26.2627 27.1186 26.2627Z" fill="#5B5D6E"/>
<path d="M9.2203 26.2627C10.718 26.2627 11.9322 25.0486 11.9322 23.5509C11.9322 22.0531 10.718 20.839 9.2203 20.839C7.72257 20.839 6.50842 22.0531 6.50842 23.5509C6.50842 25.0486 7.72257 26.2627 9.2203 26.2627Z" fill="#5B5D6E"/>
<path d="M29.8305 15.4152L28.7458 11.0762H23.3221V15.4152H29.8305Z" fill="#B4E6FF"/>
<path d="M9.22033 25.178C10.119 25.178 10.8475 24.4495 10.8475 23.5509C10.8475 22.6522 10.119 21.9238 9.22033 21.9238C8.32169 21.9238 7.5932 22.6522 7.5932 23.5509C7.5932 24.4495 8.32169 25.178 9.22033 25.178Z" fill="#1C4048"/>
<path d="M13.017 17.5848C15.1138 17.5848 16.8136 15.8849 16.8136 13.7881C16.8136 11.6913 15.1138 9.9915 13.017 9.9915C10.9201 9.9915 9.22034 11.6913 9.22034 13.7881C9.22034 15.8849 10.9201 17.5848 13.017 17.5848Z" fill="#FBAD01"/>
<path d="M14.644 15.9576C14.5053 15.9576 14.3665 15.9047 14.2606 15.7987L12.6335 14.1716C12.5318 14.0699 12.4745 13.9319 12.4745 13.7881V11.6186C12.4745 11.3191 12.7171 11.0762 13.0169 11.0762C13.3167 11.0762 13.5593 11.3191 13.5593 11.6186V13.5636L15.0275 15.0317C15.2394 15.2436 15.2394 15.5869 15.0275 15.7987C14.9216 15.9047 14.7829 15.9576 14.644 15.9576Z" fill="#5B5D6E"/>
<path d="M9.22029 24.0933C9.51984 24.0933 9.76267 23.8504 9.76267 23.5509C9.76267 23.2513 9.51984 23.0085 9.22029 23.0085C8.92075 23.0085 8.67792 23.2513 8.67792 23.5509C8.67792 23.8504 8.92075 24.0933 9.22029 24.0933Z" fill="#7F8499"/>
<path d="M27.1186 25.178C28.0173 25.178 28.7458 24.4495 28.7458 23.5509C28.7458 22.6522 28.0173 21.9238 27.1186 21.9238C26.22 21.9238 25.4915 22.6522 25.4915 23.5509C25.4915 24.4495 26.22 25.178 27.1186 25.178Z" fill="#1C4048"/>
<path d="M27.1186 24.0933C27.4182 24.0933 27.661 23.8504 27.661 23.5509C27.661 23.2513 27.4182 23.0085 27.1186 23.0085C26.8191 23.0085 26.5762 23.2513 26.5762 23.5509C26.5762 23.8504 26.8191 24.0933 27.1186 24.0933Z" fill="#7F8499"/>
<path d="M25.4915 12.161H29.017L28.7458 11.0762H23.322V15.4152H24.9491V12.7034C24.9491 12.4039 25.192 12.161 25.4915 12.161Z" fill="#9BD6FF"/>
<path d="M23.3221 9.9915H27.6611C27.9606 9.9915 28.2035 10.2344 28.2035 10.5339V11.0763H23.3221V9.9915Z" fill="#AFB9D2"/>
<path d="M32 17.5847H30.3729V19.7542H32V17.5847Z" fill="#F1F4FB"/>
<path d="M29.2881 17.5847V18.6695C29.2881 19.2686 29.7738 19.7542 30.3729 19.7542H30.9153V17.5847H29.2881Z" fill="#FBAD01"/>
<path d="M13.0169 14.3305C12.7174 14.3305 12.4745 14.0876 12.4745 13.7881V11.6186C12.4745 11.3191 12.7174 11.0762 13.0169 11.0762C13.3164 11.0762 13.5593 11.3191 13.5593 11.6186V13.7881C13.5593 14.0877 13.3165 14.3305 13.0169 14.3305Z" fill="#464655"/>
</g>
<defs>
<clipPath id="clip0_117_526">
<rect width="32" height="32" fill="white" transform="translate(0 0.5)"/>
</clipPath>
</defs>
</svg>
