<svg width="28" height="33" viewBox="0 0 28 33" fill="none" xmlns="http://www.w3.org/2000/svg">
<g clip-path="url(#clip0_117_520)">
<path d="M16.5819 12.7186C16.5819 10.3907 19.3455 8.49988 19.3455 6.68169C19.3455 5.55544 18.5234 4.57506 17.3094 4.06831V0.5H16.2913V3.77437C16.0097 3.72594 15.7181 3.70006 15.4185 3.70006C13.9522 3.70006 12.6751 4.31044 12.0006 5.21369C11.3259 4.3105 10.0477 3.70006 8.58143 3.70006C8.28181 3.70006 7.99018 3.72594 7.70862 3.77437V0.5H6.69062V4.06825C5.47775 4.575 4.65443 5.55538 4.65443 6.68163C4.65443 8.49981 7.41812 10.3907 7.41812 12.7185C7.41812 19.9909 1.89081 19.2639 1.89081 29.2999C1.89081 29.2999 2.90887 30.4638 6.54531 30.4638C8.87762 30.4638 9.52743 32.4999 12.0006 32.4999C14.4726 32.4999 15.1223 30.4638 17.4546 30.4638C21.0911 30.4638 22.1092 29.2999 22.1092 29.2999C22.1092 19.264 16.5819 19.9909 16.5819 12.7186Z" fill="#17414A"/>
</g>
<defs>
<clipPath id="clip0_117_520">
<rect width="32" height="32" fill="white" transform="translate(-4 0.5)"/>
</clipPath>
</defs>
</svg>
