<svg width="160" height="154" viewBox="0 0 160 154" fill="none" xmlns="http://www.w3.org/2000/svg">
<path fill-rule="evenodd" clip-rule="evenodd" d="M33.7191 67.4343C28.4381 51.4284 35.6681 30.7529 50.6919 19.917C63.9917 10.3195 78.5213 8.5736 93.9164 14.1766C94.9628 14.5584 96.1856 14.726 97 16.1669C92.7841 18.1246 88.6725 20.1916 84.4334 21.9398C82.2152 22.8546 82.2198 23.5809 83.7048 25.2593C86.3847 28.2854 89.0647 31.3395 90.9742 34.9499C90.1227 35.7134 89.6331 34.9429 89.0809 34.6706C79.3404 29.9056 68.8597 31.1509 61.1772 38.0016C53.4368 44.9036 50.9611 54.9829 54.4531 65.3533C54.5993 65.7909 54.6642 66.2541 54.7686 66.7057C47.7568 67.1177 40.6915 65.9259 33.7191 67.4343Z" fill="url(#paint0_linear_2_2346)"/>
<path fill-rule="evenodd" clip-rule="evenodd" d="M33.7191 67.4343C40.6915 65.9259 47.7567 67.1201 54.7663 66.7057C59.089 74.59 65.3073 79.8485 74.4608 81.0822C80.5747 81.9062 86.1388 80.2931 91.5659 77.2995C89.9162 81.2964 87.1852 84.4761 84.5007 87.6839C81.9483 90.7309 81.953 90.7146 85.619 92.3557C89.1923 93.9573 92.8328 95.4284 96.6635 97.8843C80.3195 104.383 65.1959 103.39 51.1211 93.4428C42.1045 87.074 35.986 78.4844 33.7191 67.4343Z" fill="url(#paint1_linear_2_2346)"/>
<path fill-rule="evenodd" clip-rule="evenodd" d="M128 58.6444C127.852 73.9893 121.973 87.1191 112.336 98.828C111.334 100.044 110.469 100.335 109.026 99.6013C107.633 98.8932 106.751 98.3785 107.306 96.4452C107.954 94.1812 106.837 92.2899 104.731 91.1393C102.558 89.9514 100.607 90.4801 98.8166 92.0104C97.3644 93.2426 93.496 92.9025 92.438 91.3792C91.5418 90.0865 92.9846 89.5181 93.5265 88.8124C98.6641 82.1578 102.572 74.9372 104.1 66.5986C106.699 52.3881 102.45 40.0107 93.9159 28.7209C93.2848 27.8871 90.7066 26.783 92.8133 25.5579C94.3194 24.6844 96.1938 21.9545 98.5984 24.7147C100.25 26.6083 102.389 27.1697 104.707 25.8956C106.945 24.6681 107.966 22.6999 107.177 20.2472C106.563 18.3419 107.874 18.0904 108.986 17.4615C110.328 16.6998 111.255 16.8536 112.301 18.1276C122.032 29.9251 127.925 43.1667 128 58.6444ZM126.768 58.3812C126.632 44.1427 121.274 31.3064 112.01 19.9351C111.449 19.248 110.992 18.3093 109.732 18.6564C108.158 19.0943 108.723 20.1983 108.735 21.2208C108.77 23.9484 107.56 26.012 105.078 27.2139C102.699 28.3646 100.32 28.0687 98.4271 26.3405C97.104 25.1269 95.917 24.9383 94.7276 26.0167C93.2919 27.3234 95.0654 28.092 95.619 28.863C109.779 48.5635 109.76 68.4457 95.5581 88.2278C94.9974 89.0057 93.245 89.7883 94.7159 91.081C95.9029 92.1315 97.0876 92.036 98.4177 90.7852C100.292 89.0337 102.662 88.7239 105.052 89.8815C107.546 91.0904 108.742 93.1447 108.674 95.8792C108.648 96.9204 108.163 98.0198 109.709 98.4391C111.128 98.821 111.602 97.6937 112.224 96.9227C121.201 85.8124 126.463 73.2975 126.768 58.3812Z" fill="#FBAD01"/>
<path fill-rule="evenodd" clip-rule="evenodd" d="M98.5796 28.5114C105.406 30.3631 107.966 28.8212 110.762 21.165C129.851 42.6358 130.069 74.022 110.797 95.8118C107.888 87.8342 104.581 86.1432 97.6553 89.1036L97.6905 89.1828C96.8906 88.0998 97.9838 87.5128 98.4178 86.8606C110.945 67.8728 110.832 48.9433 98.2465 30.037C98.0518 29.7459 97.911 29.4175 97.7445 29.11C98.0213 28.9074 98.3005 28.7094 98.5796 28.5114Z" fill="#FBAD01"/>
<path d="M37.8034 146.602V142.089C37.8034 140.436 38.5183 139.274 39.8587 138.694C39.5013 137.845 39.2779 136.906 39.2779 135.879C39.2779 127.791 51.3417 127.791 51.3417 135.879C51.3417 136.772 51.163 137.577 50.8949 138.291C50.8949 139.587 52.28 139.632 52.28 139.632H53.1736L53.8885 140.838L53.1736 142H52.28C50.6715 142 49.5992 141.598 49.1077 140.704C47.0077 142.447 43.8353 142.715 41.4226 140.704C40.529 140.838 40.1268 141.285 40.1268 142.089V146.602C40.1268 148.255 37.8034 148.255 37.8034 146.602ZM45.3098 139.632C47.4545 139.632 48.9736 138.023 48.9736 135.879C48.9736 133.823 47.3204 132.126 45.3098 132.126C43.2098 132.126 41.646 133.779 41.646 135.879C41.646 137.979 43.2992 139.632 45.3098 139.632ZM60.8687 129.802C65.5155 129.802 68.0623 132.751 68.0623 137.219V140.168C68.0623 141.196 67.2134 142 66.2304 142H52.9602L52.3347 140.749L52.9602 139.632H65.6049V137.04C65.6049 134.091 64.0857 132.126 61.1815 132.126H56.3113C55.507 132.126 54.8368 131.455 54.8368 130.651C54.8368 130.294 55.0155 129.847 55.2836 129.623L59.3942 125.96C59.573 125.736 59.8857 125.602 60.1985 125.602C61.2262 125.602 61.7623 126.898 61.0027 127.568L58.4113 129.802H60.8687Z" fill="#FBAD01"/>
<path d="M73.5197 129.802C77.2282 130.026 79.7303 133.019 79.7303 137.219V142H71.6431C70.1239 142 70.0793 139.632 71.6431 139.632H77.3176V137.219C77.3176 134.226 75.8431 132.394 73.2516 132.17C72.6261 132.081 72.1793 131.589 72.1793 130.964C72.1793 130.249 72.7601 129.713 73.5197 129.802ZM82.5914 140.794V126.585C82.5914 125.111 84.9595 125.066 84.9595 126.585V140.794C84.9595 142.357 82.5914 142.357 82.5914 140.794ZM101.939 140.838L101.224 142H98.9004C98.7216 144.368 97.2919 145.843 95.0578 145.843C93.2706 145.843 93.2706 143.519 95.0131 143.519C95.8621 143.519 96.3536 142.983 96.4876 142H94.5216C90.1429 142 87.8195 139.945 87.8195 135.968C87.8195 132.438 90.1429 129.802 93.3153 129.802C96.8451 129.802 98.9004 131.991 98.9004 135.745V139.632H101.224L101.939 140.838ZM90.1876 135.968C90.1876 138.47 91.6174 139.632 94.5216 139.632H96.4876V135.745C96.4876 133.198 95.594 132.215 93.3153 132.215C91.4834 132.215 90.1876 133.734 90.1876 135.968ZM109.183 129.802C113.829 129.802 116.376 132.751 116.376 137.219V140.168C116.376 141.196 115.527 142 114.544 142H101.274L100.649 140.749L101.274 139.632H113.919V137.04C113.919 134.091 112.4 132.126 109.495 132.126H104.625C103.821 132.126 103.151 131.455 103.151 130.651C103.151 130.294 103.329 129.847 103.598 129.623L107.708 125.96C107.887 125.736 108.2 125.602 108.512 125.602C109.54 125.602 110.076 126.898 109.317 127.568L106.725 129.802H109.183ZM118.84 124.217C117.589 124.217 117.589 122.564 118.706 122.564H119.287C117.634 119.838 121.074 117.694 122.906 119.66C123.397 120.196 122.772 121.402 121.923 120.687C121.297 120.151 120.314 120.33 120.18 121.134C120.002 122.206 120.851 122.564 121.253 122.564H122.057C123.174 122.564 123.174 124.217 122.057 124.217H118.84ZM119.376 140.794V126.585C119.376 125.111 121.744 125.066 121.744 126.585V140.794C121.744 142.357 119.376 142.357 119.376 140.794Z" fill="#393939"/>
<defs>
<linearGradient id="paint0_linear_2_2346" x1="32" y1="11" x2="56.6997" y2="101.578" gradientUnits="userSpaceOnUse">
<stop stop-color="#08242A"/>
<stop offset="0.961255" stop-color="#17414A"/>
</linearGradient>
<linearGradient id="paint1_linear_2_2346" x1="33.7191" y1="66.6445" x2="44.1497" y2="125.77" gradientUnits="userSpaceOnUse">
<stop stop-color="#08242A"/>
<stop offset="0.961255" stop-color="#17414A"/>
</linearGradient>
</defs>
</svg>
