<svg width="20" height="20" viewBox="0 0 20 20" fill="none" xmlns="http://www.w3.org/2000/svg">
<path d="M2.5 5H4.16667H17.5" stroke="#F20000" stroke-width="2" stroke-linecap="round" stroke-linejoin="round"/>
<path d="M6.66667 5.00008V3.33341C6.66667 2.89139 6.84227 2.46746 7.15483 2.1549C7.46739 1.84234 7.89131 1.66675 8.33334 1.66675H11.6667C12.1087 1.66675 12.5326 1.84234 12.8452 2.1549C13.1577 2.46746 13.3333 2.89139 13.3333 3.33341V5.00008M15.8333 5.00008V16.6667C15.8333 17.1088 15.6577 17.5327 15.3452 17.8453C15.0326 18.1578 14.6087 18.3334 14.1667 18.3334H5.83334C5.39131 18.3334 4.96739 18.1578 4.65483 17.8453C4.34227 17.5327 4.16667 17.1088 4.16667 16.6667V5.00008H15.8333Z" stroke="#F20000" stroke-width="2" stroke-linecap="round" stroke-linejoin="round"/>
</svg>
