<svg width="32" height="33" viewBox="0 0 32 33" fill="none" xmlns="http://www.w3.org/2000/svg">
<path d="M6.89071 7.85975C6.65269 7.13693 6.6285 6.29373 6.85218 5.57232C6.95983 5.20797 7.14268 4.86602 7.37948 4.58378C7.60469 4.29002 7.898 4.07517 8.18543 3.88368L8.45231 4.22922C8.24738 4.4561 8.05576 4.68547 7.94402 4.94986C7.58287 5.68912 7.75074 6.70327 8.14063 7.27101L6.89071 7.85975Z" fill="#CC9F71"/>
<path d="M1.86462 15.7283L3.74981 30.0837C3.88331 31.1001 4.74949 31.86 5.77451 31.86H26.2312C27.2562 31.86 28.1224 31.1001 28.2559 30.0837L30.1411 15.7283H1.86462Z" fill="#17414A"/>
<path d="M8.69042 18.6897C7.92716 18.6897 7.30847 19.3084 7.30847 20.0717V27.5166C7.30847 28.2798 7.92716 28.8985 8.69042 28.8985C9.45369 28.8985 10.0724 28.2798 10.0724 27.5166V20.0717C10.0724 19.3084 9.45369 18.6897 8.69042 18.6897ZM16.0029 18.6897C15.2396 18.6897 14.6209 19.3084 14.6209 20.0717V27.5166C14.6209 28.2798 15.2396 28.8985 16.0029 28.8985C16.7661 28.8985 17.3849 28.2798 17.3849 27.5166V20.0717C17.3848 19.3084 16.7661 18.6897 16.0029 18.6897ZM23.3153 18.6897C22.5521 18.6897 21.9333 19.3084 21.9333 20.0717V27.5166C21.9333 28.2798 22.5521 28.8985 23.3153 28.8985C24.0786 28.8985 24.6973 28.2798 24.6973 27.5166V20.0717C24.6973 19.3084 24.0786 18.6897 23.3153 18.6897Z" fill="white"/>
<path d="M30.8142 11.4423H1.18581C0.957078 11.4423 0.771606 11.6277 0.771606 11.8564V15.3141C0.771606 15.5428 0.957014 15.7283 1.18581 15.7283H30.8143C31.043 15.7283 31.2285 15.5428 31.2285 15.3141V11.8564C31.2284 11.6277 31.043 11.4423 30.8142 11.4423Z" fill="#17414A"/>
<path d="M7.47445 7.19267C9.82146 7.19267 11.7241 9.09533 11.7241 11.4422H3.22485C3.22485 9.09533 5.12751 7.19267 7.47445 7.19267Z" fill="#FBAD01"/>
<path d="M29.5136 6.62857H22.7162C22.2838 6.62857 21.9333 6.97903 21.9333 7.41135V11.4422H30.2964V7.41135C30.2965 6.97903 29.946 6.62857 29.5136 6.62857Z" fill="#CC9F71"/>
<path d="M20.175 4.12701V11.4436H11.6867V4.12701C11.6867 3.80458 11.9481 3.54314 12.2706 3.54314H19.5911C19.9135 3.54314 20.175 3.80451 20.175 4.12701Z" fill="#4A8BC9"/>
<path d="M18.1724 1.46973V3.54307H13.6893V1.46973C13.6893 1.28765 13.8369 1.14 14.019 1.14H17.8426C18.0248 1.14 18.1724 1.28765 18.1724 1.46973Z" fill="#72B0E0"/>
<path d="M25.4339 4.13897C24.8586 3.56374 23.926 3.56374 23.3509 4.13897L15.1423 12.3477L17.2253 14.4306L25.4339 6.22192C26.0091 5.64675 26.0091 4.71421 25.4339 4.13897Z" fill="#EEEAE8"/>
<path d="M16 15.1362C16.8564 15.1362 17.5507 14.4419 17.5507 13.5854C17.5507 12.729 16.8564 12.0347 16 12.0347C15.1436 12.0347 14.4493 12.729 14.4493 13.5854C14.4493 14.4419 15.1436 15.1362 16 15.1362Z" fill="#FBAD01"/>
<path d="M7.41239 5.74749C6.06199 6.42596 4.42359 5.88189 3.75159 4.53156C4.42359 4.19876 5.17239 4.16669 5.83159 4.38436C6.49719 4.60829 7.07325 5.08189 7.41239 5.74749Z" fill="#439F47"/>
</svg>
