<svg width="24" height="25" viewBox="0 0 24 25" fill="none" xmlns="http://www.w3.org/2000/svg">
<path d="M21.3 8.08H15.72C15.33 8.08 15.02 7.77 15.02 7.38C15.02 6.99 15.33 6.68 15.72 6.68H21.3C21.69 6.68 22 6.99 22 7.38C22 7.77 21.69 8.08 21.3 8.08Z" fill="white"/>
<path d="M6.42 8.08H2.7C2.31 8.08 2 7.77 2 7.38C2 6.99 2.31 6.68 2.7 6.68H6.42C6.81 6.68 7.12 6.99 7.12 7.38C7.12 7.77 6.8 8.08 6.42 8.08Z" fill="white"/>
<path d="M10.14 11.33C12.3215 11.33 14.09 9.56153 14.09 7.38C14.09 5.19848 12.3215 3.43 10.14 3.43C7.95848 3.43 6.19 5.19848 6.19 7.38C6.19 9.56153 7.95848 11.33 10.14 11.33Z" fill="white"/>
<path d="M21.3 18.31H17.58C17.19 18.31 16.88 18 16.88 17.61C16.88 17.22 17.19 16.91 17.58 16.91H21.3C21.69 16.91 22 17.22 22 17.61C22 18 21.69 18.31 21.3 18.31Z" fill="white"/>
<path d="M8.28 18.31H2.7C2.31 18.31 2 18 2 17.61C2 17.22 2.31 16.91 2.7 16.91H8.28C8.67 16.91 8.98 17.22 8.98 17.61C8.98 18 8.66 18.31 8.28 18.31Z" fill="white"/>
<path d="M13.86 21.57C16.0415 21.57 17.81 19.8015 17.81 17.62C17.81 15.4385 16.0415 13.67 13.86 13.67C11.6784 13.67 9.90997 15.4385 9.90997 17.62C9.90997 19.8015 11.6784 21.57 13.86 21.57Z" fill="white"/>
</svg>
