<svg width="25" height="24" viewBox="0 0 25 24" fill="none" xmlns="http://www.w3.org/2000/svg">
<g clip-path="url(#clip0_2_2097)">
<path d="M7.25 9.75C7.25 8.95435 7.56607 8.19129 8.12868 7.62868C8.69129 7.06607 9.45435 6.75 10.25 6.75L11.75 9.75L10.595 11.4816C11.0532 12.5763 11.9237 13.4468 13.0184 13.905L14.75 12.75L17.75 14.25C17.75 15.0456 17.4339 15.8087 16.8713 16.3713C16.3087 16.9339 15.5456 17.25 14.75 17.25C12.7609 17.25 10.8532 16.4598 9.4467 15.0533C8.04018 13.6468 7.25 11.7391 7.25 9.75Z" stroke="white" stroke-linecap="round" stroke-linejoin="round"/>
<path d="M7.99344 19.7917C9.88394 20.8858 12.1078 21.2551 14.2505 20.8307C16.3931 20.4062 18.3083 19.217 19.6389 17.4848C20.9696 15.7526 21.6248 13.5956 21.4825 11.4159C21.3403 9.2363 20.4102 7.18277 18.8656 5.63825C17.3211 4.09372 15.2676 3.16361 13.0879 3.02132C10.9083 2.87904 8.75126 3.53429 7.01904 4.86492C5.28683 6.19555 4.09765 8.11072 3.67321 10.2534C3.24877 12.396 3.61805 14.6199 4.71219 16.5104L3.53938 20.012C3.49531 20.1441 3.48891 20.286 3.52091 20.4215C3.5529 20.5571 3.62202 20.6811 3.72052 20.7796C3.81903 20.8781 3.94301 20.9472 4.07859 20.9792C4.21417 21.0112 4.35598 21.0048 4.48813 20.9607L7.99344 19.7917Z" stroke="white" stroke-linecap="round" stroke-linejoin="round"/>
</g>
<defs>
<clipPath id="clip0_2_2097">
<rect width="24" height="24" fill="white" transform="translate(0.5)"/>
</clipPath>
</defs>
</svg>
