<svg width="254" height="222" viewBox="0 0 254 222" fill="none" xmlns="http://www.w3.org/2000/svg">
<path d="M6.16272 176.208H236.349" stroke="#263238" stroke-miterlimit="10"/>
<path d="M6.16272 132.627H236.349" stroke="#263238" stroke-miterlimit="10"/>
<path d="M6.16272 89.0452H236.349" stroke="#263238" stroke-miterlimit="10"/>
<path d="M6.16272 45.4639H236.349" stroke="#263238" stroke-miterlimit="10"/>
<path d="M58.4994 20.7175V176.311" stroke="#263238" stroke-miterlimit="10"/>
<path d="M196.857 20.7175V176.311" stroke="#263238" stroke-miterlimit="10"/>
<path d="M63.6394 78.394L61.9261 80.1987" stroke="#263238" stroke-miterlimit="10"/>
<path d="M92.8175 47.6226L65.7012 76.2181" stroke="#263238" stroke-miterlimit="10"/>
<path d="M94.508 52.2771L79.2764 67.9312" stroke="#263238" stroke-miterlimit="10"/>
<path d="M202.779 78.394L201.066 80.1987" stroke="#263238" stroke-miterlimit="10"/>
<path d="M231.951 47.6226L204.841 76.2181" stroke="#263238" stroke-miterlimit="10"/>
<path d="M233.648 52.2771L218.416 67.9312" stroke="#263238" stroke-miterlimit="10"/>
<path d="M2.71333 166.402L1 168.207" stroke="#263238" stroke-miterlimit="10"/>
<path d="M31.8856 135.625L4.77502 164.226" stroke="#263238" stroke-miterlimit="10"/>
<path d="M33.5819 140.28L18.3447 155.939" stroke="#263238" stroke-miterlimit="10"/>
<path d="M25.1352 41.1633L23.4276 42.968" stroke="#263238" stroke-miterlimit="10"/>
<path d="M54.3132 10.3862L27.2026 38.9817" stroke="#263238" stroke-miterlimit="10"/>
<path d="M56.0036 15.0408L40.772 30.6949" stroke="#263238" stroke-miterlimit="10"/>
<path d="M151.922 41.1633L150.214 42.968" stroke="#263238" stroke-miterlimit="10"/>
<path d="M181.1 10.3862L153.989 38.9817" stroke="#263238" stroke-miterlimit="10"/>
<path d="M182.79 15.0408L167.559 30.6949" stroke="#263238" stroke-miterlimit="10"/>
<path d="M112.721 123.666L111.007 125.471" stroke="#263238" stroke-miterlimit="10"/>
<path d="M141.893 92.8945L114.782 121.49" stroke="#263238" stroke-miterlimit="10"/>
<path d="M143.589 97.5491L128.358 113.203" stroke="#263238" stroke-miterlimit="10"/>
<path d="M229.616 208.413C229.616 208.413 215.475 178.281 218.547 177.413C221.62 176.545 228.062 181.342 228.062 181.342C228.062 181.342 209.158 130.685 214.053 126.756C218.947 122.827 228.085 142.935 228.085 142.935C228.085 142.935 218.325 111.907 219.473 100.102C220.621 88.2972 233.019 99.668 233.019 99.668C233.019 99.668 223.088 57.3087 232.311 55.1213C241.535 52.934 241.226 103.591 241.226 103.591C241.226 103.591 244.253 67.3431 247.948 77.3889C251.643 87.4348 243.876 121.056 243.876 121.056C243.876 121.056 248.942 109.702 251.757 120.182C254.573 130.662 246.161 173.021 246.161 173.021C246.161 173.021 253.311 166.037 253.979 174.769C254.647 183.501 239.176 210.578 239.176 210.578L230.421 211.469L229.616 208.413Z" fill="#797C7C"/>
<path opacity="0.6" d="M229.616 208.413C229.616 208.413 215.475 178.281 218.547 177.413C221.62 176.545 228.062 181.342 228.062 181.342C228.062 181.342 209.158 130.685 214.053 126.756C218.947 122.827 228.085 142.935 228.085 142.935C228.085 142.935 218.325 111.907 219.473 100.102C220.621 88.2972 233.019 99.668 233.019 99.668C233.019 99.668 223.088 57.3087 232.311 55.1213C241.535 52.934 241.226 103.591 241.226 103.591C241.226 103.591 244.253 67.3431 247.948 77.3889C251.643 87.4348 243.876 121.056 243.876 121.056C243.876 121.056 248.942 109.702 251.757 120.182C254.573 130.662 246.161 173.021 246.161 173.021C246.161 173.021 253.311 166.037 253.979 174.769C254.647 183.501 239.176 210.578 239.176 210.578L230.421 211.469L229.616 208.413Z" fill="white"/>
<path d="M232.637 209.755C232.637 209.755 220.849 188.796 223.031 184.861C225.212 180.926 231.763 190.103 231.763 190.103C231.763 190.103 216.914 152.981 219.101 149.492C221.289 146.002 228.273 161.285 228.273 161.285C228.273 161.285 225.652 110.194 230.015 111.935C234.379 113.677 234.801 138.109 234.801 138.109C234.801 138.109 232.186 80.0333 236.115 81.7809C240.044 83.5285 239.61 148.155 239.61 148.155C239.61 148.155 247.468 123.261 248.776 134.614C250.084 145.968 238.736 176.54 238.736 176.54C238.736 176.54 249.65 152.519 250.981 165.209C252.311 177.899 242.226 201.429 242.226 201.429C242.226 201.429 246.155 191.822 246.155 197.06C246.155 202.297 243.099 208.853 243.099 208.853" stroke="#263238" stroke-linecap="round" stroke-linejoin="round"/>
<path d="M200.203 144.785L216.109 179.498L206.103 182.319L194.304 167.63L200.203 144.785Z" fill="#FBAD01"/>
<mask id="mask0_2_1629" style="mask-type:luminance" maskUnits="userSpaceOnUse" x="194" y="144" width="23" height="39">
<path d="M200.203 144.785L216.109 179.498L206.103 182.319L194.304 167.63L200.203 144.785Z" fill="white"/>
</mask>
<g mask="url(#mask0_2_1629)">
<g opacity="0.1">
<path d="M197.331 155.899L196.657 158.521L209.867 181.257L211.763 180.726L197.331 155.899Z" fill="black"/>
<path d="M206.177 182.302L208.085 181.765L195.794 161.85L195.138 164.403L206.177 182.302Z" fill="black"/>
<path d="M198.964 149.577L198.267 152.284L213.436 180.251L215.309 179.72L198.964 149.577Z" fill="black"/>
</g>
</g>
<path d="M200.203 144.785L216.109 179.498L206.103 182.319L194.304 167.63L200.203 144.785Z" stroke="#263238" stroke-linecap="round" stroke-linejoin="round"/>
<path d="M168.57 135.116L147.856 144.66L158.901 189.475L155.383 208.327H194.681L190.792 187.841L200.329 144.785L178.61 135.87L168.57 135.116Z" fill="#FBAD01"/>
<mask id="mask1_2_1629" style="mask-type:luminance" maskUnits="userSpaceOnUse" x="147" y="135" width="54" height="74">
<path d="M168.57 135.116L147.856 144.66L158.901 189.475L155.383 208.327H194.681L190.792 187.841L200.329 144.785L178.61 135.87L168.57 135.116Z" fill="white"/>
</mask>
<g mask="url(#mask1_2_1629)">
<g opacity="0.1">
<path d="M168.758 208.327L169.552 190.474C169.561 190.391 169.561 190.307 169.552 190.223L161.414 138.418L159.015 139.52L167.011 190.492L166.217 208.327H168.758Z" fill="black"/>
<path d="M173.521 186.202C173.521 186.202 173.521 186.157 173.521 186.134L167.068 135.808L164.652 136.95L170.991 186.448L172.625 208.356H175.172L173.521 186.202Z" fill="black"/>
<path d="M161.574 208.327L163.858 190.903C163.878 190.774 163.878 190.643 163.858 190.514L155.149 141.313L152.767 142.41L161.334 190.765L159.049 208.327H161.574Z" fill="black"/>
<path d="M199.427 144.414L197.034 143.432L188.302 188.59C188.276 188.737 188.276 188.888 188.302 189.035L191.443 208.327H194.019L190.826 188.852L190.9 188.481L190.775 187.841L192.688 179.223L199.427 144.414Z" fill="black"/>
<path d="M176.537 140.245L174.001 140.319L176.109 208.327H178.644L176.537 140.245Z" fill="black"/>
<path d="M185.44 188.521L193.876 142.135L191.477 141.147L182.91 188.287C182.882 188.432 182.882 188.581 182.91 188.727L186.257 208.327H188.833L185.44 188.521Z" fill="black"/>
<path d="M180.832 186.945L187.245 139.411L184.818 138.418L178.296 186.762C178.282 186.865 178.282 186.968 178.296 187.071L180.66 208.327H183.213L180.832 186.945Z" fill="black"/>
</g>
</g>
<path d="M168.57 135.116L147.856 144.66L158.901 189.475L155.383 208.327H194.681L190.792 187.841L200.329 144.785L178.61 135.87L168.57 135.116Z" stroke="#263238" stroke-linecap="round" stroke-linejoin="round"/>
<path d="M147.855 144.66L131.539 179.995L141.956 182.193L153.755 167.504L147.855 144.66Z" fill="#FBAD01"/>
<mask id="mask2_2_1629" style="mask-type:luminance" maskUnits="userSpaceOnUse" x="131" y="144" width="23" height="39">
<path d="M147.855 144.66L131.539 179.995L141.956 182.193L153.755 167.504L147.855 144.66Z" fill="white"/>
</mask>
<g mask="url(#mask2_2_1629)">
<g opacity="0.1">
<path d="M152.144 161.268L140.779 181.948L141.956 182.193L144.674 178.807L152.836 163.958L152.144 161.268Z" fill="black"/>
<path d="M151.122 157.316L150.38 154.437L137.695 181.297L139.609 181.702L151.122 157.316Z" fill="black"/>
<path d="M133.555 180.417L135.468 180.823L149.5 151.028L148.752 148.138L133.555 180.417Z" fill="black"/>
</g>
<path d="M147.427 150.542L153.184 165.991L147.404 157.145" stroke="#263238" stroke-miterlimit="10"/>
</g>
<path d="M147.855 144.66L131.539 179.995L141.956 182.193L153.755 167.504L147.855 144.66Z" stroke="#263238" stroke-linecap="round" stroke-linejoin="round"/>
<path d="M142.704 176.922L163.293 200.4L159.295 204.918L133.349 184.255C133.349 184.255 129.791 182.542 131.927 179.058" fill="#FBAD01"/>
<mask id="mask3_2_1629" style="mask-type:luminance" maskUnits="userSpaceOnUse" x="131" y="176" width="33" height="29">
<path d="M142.704 176.922L163.293 200.4L159.295 204.918L133.349 184.255C133.349 184.255 129.791 182.542 131.927 179.058" fill="white"/>
</mask>
<g mask="url(#mask3_2_1629)">
<g opacity="0.1">
<path d="M161.134 202.034L163.064 200.383L152.681 188.298L142.704 176.922L140.02 177.453L161.134 202.034Z" fill="black"/>
<path d="M157.022 203.119L158.741 204.489L160.357 203.067L138.152 177.824L135.274 178.39L157.022 203.119Z" fill="black"/>
</g>
</g>
<path d="M142.704 176.922L163.293 200.4L159.295 204.918L133.349 184.255C133.349 184.255 129.791 182.542 131.927 179.058" stroke="#263238" stroke-linecap="round" stroke-linejoin="round"/>
<path d="M159.986 199.515C160.557 199.195 170.489 196.819 170.626 198.036C170.763 199.252 173.721 200.594 175.069 200.594C176.417 200.594 177.765 199.515 178.033 201.131C178.301 202.748 176.822 202.885 175.611 203.016C174.401 203.147 170.22 201.805 170.22 201.805C170.22 201.805 166.314 205.038 164.698 205.843C163.081 206.648 160.129 206.414 159.044 205.575C157.958 204.735 156.491 201.4 159.986 199.515Z" fill="white" stroke="#263238" stroke-linecap="round" stroke-linejoin="round"/>
<path d="M169.152 197.899C169.152 197.899 172.921 196.819 173.721 197.225C174.521 197.63 174.937 205.712 174.937 205.712C174.937 205.712 174.532 206.517 173.721 205.712C172.91 204.906 170.22 198.858 170.22 198.858" fill="white"/>
<path d="M169.152 197.899C169.152 197.899 172.921 196.819 173.721 197.225C174.521 197.63 174.937 205.712 174.937 205.712C174.937 205.712 174.532 206.517 173.721 205.712C172.91 204.906 170.22 198.858 170.22 198.858" stroke="#263238" stroke-linecap="round" stroke-linejoin="round"/>
<path d="M167.262 198.167C167.262 198.167 171.168 197.225 171.979 198.704C172.79 200.183 174.806 206.785 173.19 207.059C171.574 207.333 171.037 205.169 171.037 205.169L168.478 200.457L166.725 200.189" fill="white"/>
<path d="M167.262 198.167C167.262 198.167 171.168 197.225 171.979 198.704C172.79 200.183 174.806 206.785 173.19 207.059C171.574 207.333 171.037 205.169 171.037 205.169L168.478 200.457L166.725 200.189" stroke="#263238" stroke-linecap="round" stroke-linejoin="round"/>
<path d="M165.92 199.378C165.92 199.378 167.804 198.573 168.747 199.247C169.689 199.921 174.001 206.785 173.19 207.059C172.379 207.334 170.494 207.191 170.226 206.654C169.957 206.117 166.457 201.514 166.457 201.514" fill="white"/>
<path d="M165.92 199.378C165.92 199.378 167.804 198.573 168.747 199.247C169.689 199.921 174.001 206.785 173.19 207.059C172.379 207.334 170.494 207.191 170.226 206.654C169.957 206.117 166.457 201.514 166.457 201.514" stroke="#263238" stroke-linecap="round" stroke-linejoin="round"/>
<path d="M164.555 201.668C164.555 201.668 166.302 200.052 167.245 200.595C168.187 201.137 172.093 206.249 171.288 206.785C170.483 207.322 169.94 206.785 169.135 205.712C168.557 204.988 167.876 204.352 167.113 203.827L165.497 204.364" fill="white"/>
<path d="M164.555 201.668C164.555 201.668 166.302 200.052 167.245 200.595C168.187 201.137 172.093 206.249 171.288 206.785C170.483 207.322 169.94 206.785 169.135 205.712C168.557 204.988 167.876 204.352 167.113 203.827L165.497 204.364" stroke="#263238" stroke-linecap="round" stroke-linejoin="round"/>
<path d="M204.35 177.676L197.496 200.994L202.454 204.455L213.653 186.454C213.653 186.454 218.256 181.257 215.366 178.333" fill="#FBAD01"/>
<mask id="mask4_2_1629" style="mask-type:luminance" maskUnits="userSpaceOnUse" x="197" y="177" width="20" height="28">
<path d="M204.35 177.676L197.496 200.994L202.454 204.455L213.653 186.454C213.653 186.454 218.256 181.257 215.366 178.333" fill="white"/>
</mask>
<g mask="url(#mask4_2_1629)">
<g opacity="0.1">
<path d="M202.608 204.175L202.693 204.032L212.179 178.144L209.529 177.984L200.363 203.01L201.391 203.724L202.608 204.175Z" fill="black"/>
<path d="M197.508 201.011L199.661 202.519L208.513 177.996L208.267 177.91L205.897 177.767L197.508 201.011Z" fill="black"/>
<path d="M216.149 179.697C215.997 179.182 215.718 178.712 215.338 178.332L213.979 178.252L206.817 197.436L213.624 186.482L216.149 179.697Z" fill="black"/>
</g>
</g>
<path d="M204.35 177.676L197.496 200.994L202.454 204.455L213.653 186.454C213.653 186.454 218.256 181.257 215.366 178.333" stroke="#263238" stroke-linecap="round" stroke-linejoin="round"/>
<path d="M200.946 199.515C200.375 199.195 190.437 196.819 190.306 198.036C190.175 199.252 187.205 200.594 185.863 200.594C184.521 200.594 183.167 199.515 182.899 201.131C182.63 202.748 184.109 202.885 185.32 203.016C186.531 203.147 190.712 201.805 190.712 201.805C190.712 201.805 194.618 205.038 196.234 205.843C197.85 206.648 200.803 206.414 201.888 205.575C202.973 204.735 204.447 201.4 200.946 199.515Z" fill="white" stroke="#263238" stroke-linecap="round" stroke-linejoin="round"/>
<path d="M191.785 197.899C191.785 197.899 188.016 196.819 187.217 197.225C186.417 197.63 186.006 205.712 186.006 205.712C186.006 205.712 186.411 206.517 187.217 205.712C188.022 204.906 190.723 198.858 190.723 198.858" fill="white"/>
<path d="M191.785 197.899C191.785 197.899 188.016 196.819 187.217 197.225C186.417 197.63 186.006 205.712 186.006 205.712C186.006 205.712 186.411 206.517 187.217 205.712C188.022 204.906 190.723 198.858 190.723 198.858" stroke="#263238" stroke-linecap="round" stroke-linejoin="round"/>
<path d="M193.681 198.167C193.681 198.167 189.781 197.225 188.97 198.704C188.159 200.183 186.114 206.785 187.759 207.059C189.404 207.333 189.912 205.169 189.912 205.169L192.471 200.457L194.224 200.189" fill="white"/>
<path d="M193.681 198.167C193.681 198.167 189.781 197.225 188.97 198.704C188.159 200.183 186.114 206.785 187.759 207.059C189.404 207.333 189.912 205.169 189.912 205.169L192.471 200.457L194.224 200.189" stroke="#263238" stroke-linecap="round" stroke-linejoin="round"/>
<path d="M195.018 199.378C195.018 199.378 193.133 198.573 192.191 199.247C191.248 199.921 186.936 206.785 187.747 207.059C188.558 207.334 190.437 207.191 190.712 206.654C190.986 206.117 194.481 201.514 194.481 201.514" fill="white"/>
<path d="M195.018 199.378C195.018 199.378 193.133 198.573 192.191 199.247C191.248 199.921 186.936 206.785 187.747 207.059C188.558 207.334 190.437 207.191 190.712 206.654C190.986 206.117 194.481 201.514 194.481 201.514" stroke="#263238" stroke-linecap="round" stroke-linejoin="round"/>
<path d="M196.366 201.668C196.366 201.668 194.618 200.046 193.681 200.617C192.745 201.188 188.833 206.271 189.644 206.808C190.455 207.345 190.992 206.808 191.797 205.734C192.374 205.01 193.056 204.375 193.819 203.85L195.435 204.387" fill="white"/>
<path d="M196.366 201.668C196.366 201.668 194.618 200.046 193.681 200.617C192.745 201.188 188.833 206.271 189.644 206.808C190.455 207.345 190.992 206.808 191.797 205.734C192.374 205.01 193.056 204.375 193.819 203.85L195.435 204.387" stroke="#263238" stroke-linecap="round" stroke-linejoin="round"/>
<path d="M170.072 132.729C170.072 132.729 166.811 133.735 165.429 135.745C164.047 137.755 165.68 153.318 165.68 153.318L176.103 147.544L187.022 154.449C187.022 154.449 186.017 138.509 185.138 136.247C184.258 133.986 178.735 131.353 176.851 131.604C174.966 131.856 170.072 132.729 170.072 132.729Z" fill="#FBAD01" stroke="#263238" stroke-linecap="round" stroke-linejoin="round"/>
<path d="M168.57 124.071V138.509L175.474 157.087L181.374 138.132V123.946L168.57 124.071Z" fill="white" stroke="#263238" stroke-linecap="round" stroke-linejoin="round"/>
<path d="M168.552 129.257C170.501 130.624 172.825 131.356 175.206 131.353C177.382 131.355 179.514 130.741 181.357 129.582V123.946L168.552 124.088V129.257Z" fill="#263238" stroke="#263238" stroke-linecap="round" stroke-linejoin="round"/>
<path d="M175.223 128.086C172.139 128.086 169.18 126.861 166.999 124.681C164.817 122.5 163.591 119.543 163.59 116.459L161.539 100.102C161.539 96.4667 162.983 92.9803 165.554 90.4098C168.124 87.8394 171.611 86.3953 175.246 86.3953C178.881 86.3953 182.367 87.8394 184.938 90.4098C187.508 92.9803 188.953 96.4667 188.953 100.102L186.828 116.436C186.831 117.963 186.533 119.475 185.952 120.887C185.37 122.299 184.516 123.583 183.438 124.664C182.361 125.746 181.081 126.605 179.671 127.192C178.261 127.78 176.75 128.083 175.223 128.086Z" fill="white" stroke="#263238" stroke-linecap="round" stroke-linejoin="round"/>
<path d="M178.21 111.981C178.21 111.981 181.174 109.497 184.715 112.175" stroke="#263238" stroke-linecap="round" stroke-linejoin="round"/>
<path d="M172.853 111.695C171.973 111.135 170.925 110.899 169.889 111.027" stroke="#263238" stroke-linecap="round" stroke-linejoin="round"/>
<path d="M179.358 106.053C179.358 106.053 182.516 104.522 184.429 107.486" stroke="#263238" stroke-linecap="round" stroke-linejoin="round"/>
<path d="M174.264 118.583C174.264 118.583 175.606 119.634 176.754 118.583" stroke="#263238" stroke-linecap="round" stroke-linejoin="round"/>
<path d="M172.95 120.879C172.95 120.879 175.726 122.592 177.348 120.879" stroke="#263238" stroke-linecap="round" stroke-linejoin="round"/>
<path d="M181.071 98.3885C181.071 98.3885 169.603 108.977 166.405 116.693C163.207 124.408 166.074 132.467 167.839 134.785C169.603 137.104 170.694 137.43 170.694 137.43C170.694 137.43 164.629 139.748 160.66 133.683C156.691 127.618 157.679 120.776 158.895 116.036C160.111 111.296 159.775 97.3947 162.533 92.763C165.291 88.1313 169.261 84.7104 175.88 85.4814C182.499 86.2524 186.023 89.6733 188.119 93.9738C190.215 98.2742 189.221 105.556 189.883 108.754C190.546 111.952 193.413 121.547 194.075 127.281C194.738 133.015 186.919 137.098 185.686 137.652C184.847 138.005 183.951 138.199 183.042 138.223C183.042 138.223 185.686 124.991 186.24 117.378C186.794 109.765 186.828 105.242 186.828 105.242C186.828 105.242 181.625 98.7197 181.071 98.3885Z" fill="#263238"/>
<mask id="mask5_2_1629" style="mask-type:luminance" maskUnits="userSpaceOnUse" x="157" y="85" width="38" height="54">
<path d="M181.071 98.3885C181.071 98.3885 169.603 108.977 166.405 116.693C163.207 124.408 166.074 132.467 167.839 134.785C169.603 137.104 170.694 137.43 170.694 137.43C170.694 137.43 164.629 139.748 160.66 133.683C156.691 127.618 157.679 120.776 158.895 116.036C160.111 111.296 159.775 97.3947 162.533 92.763C165.291 88.1313 169.261 84.7104 175.88 85.4814C182.499 86.2524 186.023 89.6733 188.119 93.9738C190.215 98.2742 189.221 105.556 189.883 108.754C190.546 111.952 193.413 121.547 194.075 127.281C194.738 133.015 186.919 137.098 185.686 137.652C184.847 138.005 183.951 138.199 183.042 138.223C183.042 138.223 185.686 124.991 186.24 117.378C186.794 109.765 186.828 105.242 186.828 105.242C186.828 105.242 181.625 98.7197 181.071 98.3885Z" fill="white"/>
</mask>
<g mask="url(#mask5_2_1629)">
<path d="M179.729 90.9641C179.729 90.9641 178.376 94.6935 168.638 105.379C158.901 116.064 156.257 126.259 159.215 136.219" stroke="#707070" stroke-miterlimit="10"/>
<path d="M177.325 87.2405C177.325 87.2405 171.968 91.678 165.332 98.3257C161.253 102.441 157.77 107.106 154.983 112.187" stroke="#707070" stroke-miterlimit="10"/>
<path d="M182.128 91.8606C182.128 91.8606 186.194 99.2508 188.41 103.688C190.626 108.126 193.219 133.066 185.458 141.953" stroke="#707070" stroke-miterlimit="10"/>
<path d="M179.358 85.7612L181.072 98.3885" stroke="#707070" stroke-miterlimit="10"/>
</g>
<path d="M181.071 98.3885C181.071 98.3885 169.603 108.977 166.405 116.693C163.207 124.408 166.074 132.467 167.839 134.785C169.603 137.104 170.694 137.43 170.694 137.43C170.694 137.43 164.629 139.748 160.66 133.683C156.691 127.618 157.679 120.776 158.895 116.036C160.111 111.296 159.775 97.3947 162.533 92.763C165.291 88.1313 169.261 84.7104 175.88 85.4814C182.499 86.2524 186.023 89.6733 188.119 93.9738C190.215 98.2742 189.221 105.556 189.883 108.754C190.546 111.952 193.413 121.547 194.075 127.281C194.738 133.015 186.919 137.098 185.686 137.652C184.847 138.005 183.951 138.199 183.042 138.223C183.042 138.223 185.686 124.991 186.24 117.378C186.794 109.765 186.828 105.242 186.828 105.242C186.828 105.242 181.625 98.7197 181.071 98.3885Z" stroke="#263238" stroke-linecap="round" stroke-linejoin="round"/>
<path d="M160.409 105.779H158.718C157.784 105.779 157.028 106.536 157.028 107.469V114.237C157.028 115.171 157.784 115.927 158.718 115.927H160.409C161.342 115.927 162.099 115.171 162.099 114.237V107.469C162.099 106.536 161.342 105.779 160.409 105.779Z" fill="white" stroke="#263238" stroke-linecap="round" stroke-linejoin="round"/>
<path d="M191.403 105.779H189.712C188.779 105.779 188.022 106.536 188.022 107.469V114.237C188.022 115.171 188.779 115.927 189.712 115.927H191.403C192.336 115.927 193.093 115.171 193.093 114.237V107.469C193.093 106.536 192.336 105.779 191.403 105.779Z" fill="white" stroke="#263238" stroke-linecap="round" stroke-linejoin="round"/>
<path d="M190.997 105.779V100.262C190.997 95.9918 189.301 91.8968 186.282 88.8776C183.263 85.8583 179.168 84.1621 174.898 84.1621C170.627 84.1621 166.532 85.8581 163.512 88.8772C160.491 91.8963 158.794 95.9913 158.792 100.262V105.779" stroke="#263238" stroke-width="2" stroke-linejoin="round"/>
<path d="M190.557 115.876C190.557 115.876 189.844 121.399 183.087 123.649" stroke="#263238" stroke-linecap="round" stroke-linejoin="round"/>
<path d="M182.83 123.409C183.116 124.237 182.31 125.265 181.025 125.693C179.74 126.122 178.478 125.83 178.17 125.002C177.862 124.174 178.69 123.146 179.969 122.718C181.248 122.289 182.562 122.581 182.83 123.409Z" stroke="#263238" stroke-linecap="round" stroke-linejoin="round"/>
<path d="M67.2373 130.531L43.639 141.776L50.4466 208.465H97.489L104.142 140.668L81.9662 130.371L67.2373 130.531Z" fill="#FBAD01" stroke="#263238" stroke-linecap="round" stroke-linejoin="round"/>
<path d="M76.6949 150.879C77.1365 150.879 77.4945 150.521 77.4945 150.08C77.4945 149.638 77.1365 149.28 76.6949 149.28C76.2534 149.28 75.8954 149.638 75.8954 150.08C75.8954 150.521 76.2534 150.879 76.6949 150.879Z" fill="#263238"/>
<path d="M77.4945 154.877C77.4945 155.035 77.4476 155.19 77.3597 155.321C77.2719 155.453 77.147 155.555 77.0009 155.616C76.8548 155.676 76.6941 155.692 76.539 155.661C76.3839 155.63 76.2414 155.554 76.1296 155.442C76.0177 155.331 75.9416 155.188 75.9107 155.033C75.8799 154.878 75.8957 154.717 75.9562 154.571C76.0168 154.425 76.1192 154.3 76.2507 154.212C76.3822 154.124 76.5368 154.077 76.6949 154.077C76.907 154.077 77.1104 154.162 77.2603 154.312C77.4103 154.462 77.4945 154.665 77.4945 154.877Z" fill="#263238"/>
<path d="M84.8788 133.934L78.431 141.125L75.6783 148.109L72.7142 141.022L66.4777 133.934V121.347H84.8788V133.934Z" fill="white" stroke="#263238" stroke-linecap="round" stroke-linejoin="round"/>
<path d="M66.4777 126.944C67.6915 128.42 69.2175 129.608 70.9457 130.422C72.674 131.237 74.5614 131.658 76.4721 131.656C79.5559 131.66 82.5387 130.557 84.8788 128.549V121.347H66.4777V126.944Z" fill="#263238" stroke="#263238" stroke-linecap="round" stroke-linejoin="round"/>
<path d="M77.7687 86.1211H75.1758C68.735 86.1211 63.5137 91.3424 63.5137 97.7832V116.453C63.5137 122.894 68.735 128.115 75.1758 128.115H77.7687C84.2094 128.115 89.4307 122.894 89.4307 116.453V97.7832C89.4307 91.3424 84.2094 86.1211 77.7687 86.1211Z" fill="white" stroke="#263238" stroke-linecap="round" stroke-linejoin="round"/>
<path d="M78.9565 104.739L78.5739 113.917C78.5664 114.315 78.4369 114.701 78.203 115.022C77.9691 115.344 77.642 115.586 77.266 115.716C76.575 115.927 75.7869 115.716 75.3585 114.157" stroke="#263238" stroke-linecap="round" stroke-linejoin="round"/>
<path d="M71.4634 117.538H81.7434C81.7434 117.538 79.9444 121.456 76.4549 121.456C72.9655 121.456 71.4634 117.538 71.4634 117.538Z" fill="#263238" stroke="#263238" stroke-linecap="round" stroke-linejoin="round"/>
<path d="M72.1945 118.914H80.8525C81.1816 118.484 81.4685 118.023 81.7092 117.538H71.4634C71.6586 118.021 71.9036 118.482 72.1945 118.914Z" fill="white" stroke="#263238" stroke-linecap="round" stroke-linejoin="round"/>
<path d="M71.3436 108.868C71.7536 108.868 72.086 108.086 72.086 107.121C72.086 106.156 71.7536 105.373 71.3436 105.373C70.9335 105.373 70.6011 106.156 70.6011 107.121C70.6011 108.086 70.9335 108.868 71.3436 108.868Z" fill="#263238"/>
<path d="M82.4459 108.868C82.856 108.868 83.1884 108.086 83.1884 107.121C83.1884 106.156 82.856 105.373 82.4459 105.373C82.0359 105.373 81.7035 106.156 81.7035 107.121C81.7035 108.086 82.0359 108.868 82.4459 108.868Z" fill="#263238"/>
<path d="M80.1217 102.518C80.1217 102.518 82.6574 100.93 85.5187 103.471" stroke="#263238" stroke-linecap="round" stroke-linejoin="round"/>
<path d="M76.4722 86.1211C73.0354 86.1211 69.7394 87.4864 67.3092 89.9165C64.879 92.3467 63.5137 95.6428 63.5137 99.0796V110.884H63.6222H64.6788V106.019C64.6788 106.019 69.9673 106.019 76.2095 102.638C82.4518 99.2566 84.028 93.7397 84.028 93.7397C84.028 93.7397 85.4044 100.405 86.8836 101.672L88.3685 102.94V110.982H89.425V99.0796C89.425 95.6438 88.0605 92.3486 85.6316 89.9186C83.2026 87.4885 79.9081 86.1226 76.4722 86.1211Z" fill="#263238" stroke="#263238" stroke-linecap="round" stroke-linejoin="round"/>
<path d="M61.0865 104.636H63.5137V114.26H61.0865C60.4685 114.26 59.8758 114.014 59.4388 113.577C59.0018 113.14 58.7563 112.548 58.7563 111.93V106.955C58.7594 106.339 59.0062 105.749 59.4429 105.315C59.8795 104.88 60.4705 104.636 61.0865 104.636Z" fill="white" stroke="#263238" stroke-linecap="round" stroke-linejoin="round"/>
<path d="M91.7038 114.26H89.2766V104.637H91.7038C92.0098 104.637 92.3128 104.697 92.5955 104.814C92.8782 104.931 93.1351 105.103 93.3515 105.319C93.5678 105.535 93.7395 105.792 93.8566 106.075C93.9737 106.358 94.0339 106.661 94.0339 106.967V111.941C94.0309 112.557 93.7841 113.147 93.3474 113.581C92.9108 114.016 92.3198 114.26 91.7038 114.26Z" fill="white" stroke="#263238" stroke-linecap="round" stroke-linejoin="round"/>
<path d="M61.4006 104.636V98.497C61.4006 94.5134 62.9831 90.693 65.7999 87.8761C68.6168 85.0593 72.4372 83.4768 76.4208 83.4768C80.404 83.4783 84.2236 85.0613 87.0401 87.8778C89.8566 90.6943 91.4395 94.5139 91.4411 98.497V104.636" stroke="#263238" stroke-width="2" stroke-linejoin="round"/>
<path d="M91.4523 114.26C91.4523 114.26 90.7099 119.971 83.7309 122.301" stroke="#263238" stroke-linecap="round" stroke-linejoin="round"/>
<path d="M83.4568 122.05C83.7538 122.906 82.9199 123.969 81.595 124.431C80.27 124.894 78.9564 124.568 78.6595 123.712C78.3625 122.855 79.1963 121.793 80.5213 121.33C81.8463 120.867 83.1769 121.193 83.4568 122.05Z" stroke="#263238" stroke-linecap="round" stroke-linejoin="round"/>
<path d="M43.639 141.776L23.6787 184.01L31.9141 191.194L46.803 172.507L43.639 141.776Z" fill="#FBAD01" stroke="#263238" stroke-linecap="round" stroke-linejoin="round"/>
<path d="M42 154.723L46.8488 171.08L41.092 161.685" stroke="#263238" stroke-miterlimit="10"/>
<path d="M104.142 140.668L123.149 183.119L111.43 188.19L100.973 171.399L104.142 140.668Z" fill="#FBAD01" stroke="#263238" stroke-linecap="round" stroke-linejoin="round"/>
<path d="M34.4499 182.959L51.5546 198.955L46.803 204.501L21.9368 189.075L24.7924 181.474" fill="#FBAD01"/>
<path d="M34.4499 182.959L51.5546 198.955L46.803 204.501L21.9368 189.075L24.7924 181.474" stroke="#263238" stroke-linecap="round" stroke-linejoin="round"/>
<path d="M48.7047 198.007C49.4015 197.631 61.0579 194.838 61.2178 196.266C61.3777 197.693 64.8615 199.275 66.4434 199.275C68.0254 199.275 69.6131 198.007 69.9272 199.909C70.2413 201.811 68.5051 201.965 67.0716 202.125C65.6382 202.285 60.738 200.697 60.738 200.697C60.738 200.697 56.1691 204.501 54.2445 205.455C52.3199 206.409 48.8589 206.083 47.5911 205.135C46.3232 204.187 44.587 200.223 48.7047 198.007Z" fill="white" stroke="#263238" stroke-linecap="round" stroke-linejoin="round"/>
<path d="M59.4702 196.106C59.4702 196.106 63.9077 194.838 64.8558 195.317C65.8038 195.797 66.2836 205.295 66.2836 205.295C66.2836 205.295 65.8038 206.243 64.8558 205.295C63.9077 204.347 60.7438 197.191 60.7438 197.191" fill="white"/>
<path d="M59.4702 196.106C59.4702 196.106 63.9077 194.838 64.8558 195.317C65.8038 195.797 66.2836 205.295 66.2836 205.295C66.2836 205.295 65.8038 206.243 64.8558 205.295C63.9077 204.347 60.7438 197.191 60.7438 197.191" stroke="#263238" stroke-linecap="round" stroke-linejoin="round"/>
<path d="M57.26 196.425C57.26 196.425 61.8289 195.317 62.7998 197.059C63.7707 198.801 66.1294 206.563 64.2276 206.877C62.3258 207.191 61.6919 204.661 61.6919 204.661L58.6821 199.115L56.6261 198.801" fill="white"/>
<path d="M57.26 196.425C57.26 196.425 61.8289 195.317 62.7998 197.059C63.7707 198.801 66.1294 206.563 64.2276 206.877C62.3258 207.191 61.6919 204.661 61.6919 204.661L58.6821 199.115L56.6261 198.801" stroke="#263238" stroke-linecap="round" stroke-linejoin="round"/>
<path d="M55.6725 197.848C55.6725 197.848 57.8941 196.899 59.0021 197.693C60.11 198.487 65.1815 206.563 64.2277 206.9C63.274 207.237 61.0581 207.06 60.7439 206.426C60.4298 205.792 56.3064 200.406 56.3064 200.406" fill="white"/>
<path d="M55.6725 197.848C55.6725 197.848 57.8941 196.899 59.0021 197.693C60.11 198.487 65.1815 206.563 64.2277 206.9C63.274 207.237 61.0581 207.06 60.7439 206.426C60.4298 205.792 56.3064 200.406 56.3064 200.406" stroke="#263238" stroke-linecap="round" stroke-linejoin="round"/>
<path d="M54.0905 200.543C54.0905 200.543 56.1522 198.641 57.2601 199.275C58.3681 199.909 62.9712 205.929 62.0118 206.563C61.0523 207.197 60.4241 206.563 59.476 205.295C58.7975 204.442 57.997 203.693 57.1002 203.073L55.1984 203.707" fill="white"/>
<path d="M54.0905 200.543C54.0905 200.543 56.1522 198.641 57.2601 199.275C58.3681 199.909 62.9712 205.929 62.0118 206.563C61.0523 207.197 60.4241 206.563 59.476 205.295C58.7975 204.442 57.997 203.693 57.1002 203.073L55.1984 203.707" stroke="#263238" stroke-linecap="round" stroke-linejoin="round"/>
<path d="M108.557 178.915L98.5284 200.08L104.982 203.49L123.949 183.393L118.506 177.367" fill="#FBAD01"/>
<path d="M108.557 178.915L98.5284 200.08L104.982 203.49L123.949 183.393L118.506 177.367" stroke="#263238" stroke-linecap="round" stroke-linejoin="round"/>
<path d="M103.549 198.007C102.852 197.631 91.1898 194.838 91.0356 196.266C90.8814 197.693 87.3919 199.275 85.8042 199.275C84.2165 199.275 82.6403 198.007 82.3205 199.909C82.0006 201.811 83.7482 201.965 85.176 202.125C86.6038 202.285 91.5096 200.697 91.5096 200.697C91.5096 200.697 96.0785 204.501 98.0032 205.455C99.9278 206.409 103.389 206.083 104.657 205.135C105.924 204.187 107.666 200.223 103.549 198.007Z" fill="white" stroke="#263238" stroke-linecap="round" stroke-linejoin="round"/>
<path d="M92.7774 196.106C92.7774 196.106 88.3399 194.838 87.3918 195.317C86.4438 195.797 85.9641 205.295 85.9641 205.295C85.9641 205.295 86.4381 206.243 87.3918 205.295C88.3456 204.347 91.5095 197.191 91.5095 197.191" fill="white"/>
<path d="M92.7774 196.106C92.7774 196.106 88.3399 194.838 87.3918 195.317C86.4438 195.797 85.9641 205.295 85.9641 205.295C85.9641 205.295 86.4381 206.243 87.3918 205.295C88.3456 204.347 91.5095 197.191 91.5095 197.191" stroke="#263238" stroke-linecap="round" stroke-linejoin="round"/>
<path d="M94.9934 196.425C94.9934 196.425 90.4245 195.317 89.4479 197.059C88.4713 198.801 86.124 206.563 88.0258 206.9C89.9276 207.237 90.5558 204.684 90.5558 204.684L93.5656 199.138L95.6273 198.824" fill="white"/>
<path d="M94.9934 196.425C94.9934 196.425 90.4245 195.317 89.4479 197.059C88.4713 198.801 86.124 206.563 88.0258 206.9C89.9276 207.237 90.5558 204.684 90.5558 204.684L93.5656 199.138L95.6273 198.824" stroke="#263238" stroke-linecap="round" stroke-linejoin="round"/>
<path d="M96.5923 197.848C96.5923 197.848 94.3764 196.899 93.2685 197.693C92.1605 198.487 87.0719 206.563 88.0257 206.9C88.9794 207.237 91.1896 207.06 91.5095 206.426C91.8293 205.792 95.9413 200.406 95.9413 200.406" fill="white"/>
<path d="M96.5923 197.848C96.5923 197.848 94.3764 196.899 93.2685 197.693C92.1605 198.487 87.0719 206.563 88.0257 206.9C88.9794 207.237 91.1896 207.06 91.5095 206.426C91.8293 205.792 95.9413 200.406 95.9413 200.406" stroke="#263238" stroke-linecap="round" stroke-linejoin="round"/>
<path d="M98.163 200.543C98.163 200.543 96.1013 198.641 94.9933 199.275C93.8853 199.909 89.2822 205.929 90.2417 206.563C91.2011 207.197 91.8236 206.563 92.7774 205.295C93.4559 204.442 94.2564 203.693 95.1532 203.073L97.055 203.707" fill="white"/>
<path d="M98.163 200.543C98.163 200.543 96.1013 198.641 94.9933 199.275C93.8853 199.909 89.2822 205.929 90.2417 206.563C91.2011 207.197 91.8236 206.563 92.7774 205.295C93.4559 204.442 94.2564 203.693 95.1532 203.073L97.055 203.707" stroke="#263238" stroke-linecap="round" stroke-linejoin="round"/>
<path d="M133.52 61.9575H96.3982C94.677 61.9575 93.0262 62.6409 91.8086 63.8574C90.591 65.0739 89.9062 66.7241 89.9047 68.4453V79.2964C89.9002 80.1511 90.0644 80.9982 90.388 81.7893C90.7116 82.5803 91.1882 83.2997 91.7904 83.9062C92.3926 84.5126 93.1087 84.9943 93.8974 85.3234C94.6862 85.6525 95.5321 85.8227 96.3868 85.8242H100.956L94.7249 93.974L108.734 85.8242H133.52C134.373 85.822 135.217 85.6518 136.004 85.3234C136.791 84.995 137.506 84.5148 138.107 83.9102C138.708 83.3056 139.185 82.5885 139.509 81.7998C139.833 81.0111 139.999 80.1663 139.997 79.3136V68.4625C140 66.7413 139.319 65.0893 138.105 63.8695C136.891 62.6498 135.242 61.9621 133.52 61.9575Z" fill="white" stroke="#263238" stroke-miterlimit="10"/>
<path d="M109.859 74.6361C109.86 74.9357 109.773 75.2289 109.607 75.4785C109.441 75.7282 109.205 75.923 108.929 76.0385C108.652 76.1539 108.348 76.1847 108.054 76.1269C107.76 76.0692 107.49 75.9255 107.278 75.714C107.065 75.5026 106.921 75.233 106.862 74.9392C106.803 74.6455 106.833 74.3409 106.947 74.064C107.061 73.7871 107.255 73.5504 107.504 73.3839C107.753 73.2173 108.046 73.1284 108.346 73.1284C108.746 73.1284 109.13 73.2871 109.414 73.5697C109.698 73.8523 109.858 74.2357 109.859 74.6361Z" fill="#263238"/>
<path d="M116.461 74.6362C116.462 74.936 116.374 75.2294 116.209 75.4791C116.043 75.7289 115.806 75.9237 115.53 76.039C115.253 76.1543 114.948 76.1847 114.654 76.1265C114.36 76.0683 114.09 75.924 113.878 75.712C113.666 75.5 113.521 75.2298 113.463 74.9357C113.405 74.6416 113.435 74.3368 113.551 74.0601C113.666 73.7833 113.861 73.547 114.111 73.3811C114.36 73.2152 114.654 73.1273 114.954 73.1284C115.353 73.1284 115.737 73.2873 116.02 73.57C116.302 73.8528 116.461 74.2363 116.461 74.6362Z" fill="#263238"/>
<path d="M123.063 74.6361C123.063 74.9344 122.975 75.2259 122.809 75.4738C122.644 75.7217 122.408 75.915 122.133 76.0291C121.857 76.1432 121.554 76.1731 121.261 76.1149C120.969 76.0567 120.7 75.9131 120.489 75.7023C120.279 75.4914 120.135 75.2228 120.077 74.9303C120.019 74.6378 120.049 74.3347 120.163 74.0592C120.277 73.7837 120.47 73.5482 120.718 73.3825C120.966 73.2168 121.257 73.1284 121.556 73.1284C121.955 73.1284 122.339 73.2873 122.622 73.57C122.904 73.8528 123.063 74.2363 123.063 74.6361Z" fill="#263238"/>
<path d="M209.358 206.745H140.174V209.538H209.358V206.745Z" fill="white" stroke="#263238" stroke-linecap="round" stroke-linejoin="round"/>
<path d="M219.987 206.745H159.683V209.538H219.987V206.745Z" fill="white" stroke="#263238" stroke-linecap="round" stroke-linejoin="round"/>
<path d="M221.157 201.782H163.464L169.683 157.733H227.377L221.157 201.782Z" fill="white" stroke="#263238" stroke-linecap="round" stroke-linejoin="round"/>
<path d="M223.545 201.782H165.851L172.07 157.733H229.764L223.545 201.782Z" fill="#263238" stroke="#263238" stroke-linecap="round" stroke-linejoin="round"/>
<path d="M205.863 181.308L211.654 209.532H196.765L190.98 181.308H205.863ZM195.766 189.686C195.794 189.801 195.86 189.903 195.953 189.975C196.047 190.048 196.162 190.087 196.28 190.086L204.715 190.006C204.794 190.005 204.872 189.986 204.943 189.951C205.013 189.915 205.075 189.864 205.123 189.802C205.172 189.739 205.205 189.667 205.222 189.589C205.238 189.512 205.237 189.432 205.218 189.355L204.458 186.191C204.43 186.076 204.364 185.973 204.271 185.9C204.178 185.826 204.063 185.786 203.944 185.786L195.509 185.866C195.43 185.867 195.352 185.886 195.281 185.921C195.21 185.957 195.148 186.007 195.099 186.07C195.05 186.132 195.016 186.205 194.999 186.282C194.982 186.359 194.983 186.439 195 186.517L195.766 189.686Z" fill="white" stroke="#263238" stroke-linecap="round" stroke-linejoin="round"/>
<path d="M107.027 206.745H37.8423V209.538H107.027V206.745Z" fill="white" stroke="#263238" stroke-linecap="round" stroke-linejoin="round"/>
<path d="M117.655 206.745H57.3514V209.538H117.655V206.745Z" fill="white" stroke="#263238" stroke-linecap="round" stroke-linejoin="round"/>
<path d="M118.826 201.782H61.1323L67.3517 157.733H125.045L118.826 201.782Z" fill="white" stroke="#263238" stroke-linecap="round" stroke-linejoin="round"/>
<path d="M121.213 201.782H63.5194L69.7388 157.733H127.432L121.213 201.782Z" fill="#263238" stroke="#263238" stroke-linecap="round" stroke-linejoin="round"/>
<path d="M103.537 181.308L109.323 209.532H94.4338L88.6484 181.308H103.537ZM93.4343 189.686C93.4635 189.801 93.5298 189.902 93.6229 189.974C93.716 190.047 93.8305 190.086 93.9483 190.086L102.384 190.006C102.463 190.005 102.541 189.986 102.612 189.95C102.682 189.915 102.744 189.864 102.793 189.802C102.842 189.739 102.876 189.667 102.893 189.59C102.91 189.512 102.91 189.432 102.892 189.355L102.127 186.191C102.1 186.075 102.034 185.972 101.941 185.899C101.847 185.825 101.732 185.785 101.613 185.786L93.1773 185.866C93.0983 185.867 93.0205 185.886 92.9498 185.921C92.8791 185.956 92.8173 186.007 92.769 186.07C92.7207 186.132 92.6871 186.205 92.6708 186.282C92.6545 186.36 92.6559 186.44 92.6748 186.517L93.4343 189.686Z" fill="white" stroke="#263238" stroke-linecap="round" stroke-linejoin="round"/>
<path d="M248.365 209.532H2.26208V212.297H248.365V209.532Z" fill="#263238" stroke="#263238" stroke-linecap="round" stroke-linejoin="round"/>
</svg>
