<svg width="25" height="25" viewBox="0 0 25 25" fill="none" xmlns="http://www.w3.org/2000/svg">
<path d="M16.5 13.4V17.6C16.5 21.1 15.1 22.5 11.6 22.5H7.4C3.9 22.5 2.5 21.1 2.5 17.6V13.4C2.5 9.9 3.9 8.5 7.4 8.5H11.6C15.1 8.5 16.5 9.9 16.5 13.4Z" fill="#10333A"/>
<path d="M17.6 2.5H13.4C10.3169 2.5 8.87099 3.59409 8.56975 6.23901C8.50673 6.79235 8.965 7.25 9.52191 7.25H11.6C15.8 7.25 17.75 9.2 17.75 13.4V15.4781C17.75 16.035 18.2077 16.4933 18.761 16.4303C21.4059 16.129 22.5 14.6831 22.5 11.6V7.4C22.5 3.9 21.1 2.5 17.6 2.5Z" fill="#10333A"/>
</svg>
