<svg width="32" height="32" viewBox="0 0 32 32" fill="none" xmlns="http://www.w3.org/2000/svg">
<path d="M21.7113 4.71032C21.9761 4.4206 28.2021 4.8402 27.9373 5.12892L21.2478 12.4428C21.1849 12.5117 21.1091 12.5675 21.0246 12.607C20.9402 12.6466 20.8488 12.6691 20.7556 12.6732C20.6624 12.6774 20.5694 12.6632 20.4817 12.6314C20.3941 12.5995 20.3135 12.5508 20.2448 12.4878L17.6932 10.154C17.4045 9.8903 17.3845 9.44074 17.6493 9.15202L21.7113 4.71032Z" fill="#FF4893"/>
<path d="M20.9771 13.342C21.4527 13.7765 21.4856 14.5158 21.051 14.9914L10.0437 27.0267C9.60812 27.5023 8.86984 27.5352 8.3933 27.1006L4.19537 23.2604C3.71883 22.8248 3.68586 22.0865 4.12144 21.611L15.1288 9.57562C15.5634 9.09908 16.3026 9.06611 16.7782 9.50169L20.9771 13.342Z" fill="#51777F"/>
<path d="M9.18135 28.1055C8.7145 28.1055 8.26723 27.9321 7.92207 27.6172L3.72343 23.7764C3.5419 23.6114 3.39489 23.412 3.29094 23.1898C3.18698 22.9676 3.12814 22.727 3.11782 22.4819C3.10615 22.2368 3.14327 21.9919 3.22705 21.7613C3.31083 21.5307 3.43959 21.319 3.60585 21.1386L14.6128 9.10367C14.7878 8.91238 15.0006 8.75959 15.2378 8.655C15.475 8.55042 15.7314 8.49632 15.9907 8.49615C16.4583 8.49615 16.9058 8.67009 17.2506 8.98608L21.4492 12.826C21.6306 12.991 21.7774 13.1903 21.8813 13.4124C21.9851 13.6346 22.0438 13.8751 22.0541 14.1201C22.0657 14.365 22.0287 14.6099 21.9451 14.8404C21.8616 15.0709 21.7331 15.2826 21.5672 15.4632L10.5598 27.4987C10.3845 27.6897 10.1715 27.8423 9.93422 27.9467C9.69695 28.0511 9.44059 28.1052 9.18135 28.1055ZM15.9907 9.8947C15.8576 9.8947 15.7349 9.94875 15.6456 10.0468L4.63755 22.0829C4.59586 22.1281 4.56355 22.1811 4.54251 22.2388C4.52147 22.2966 4.51211 22.358 4.51497 22.4194C4.5176 22.4809 4.53241 22.5413 4.55854 22.597C4.58468 22.6528 4.62162 22.7028 4.66722 22.7442L8.86525 26.5845C8.95164 26.6633 9.06435 26.7069 9.18125 26.7068C9.24651 26.7071 9.3111 26.6937 9.37084 26.6675C9.43058 26.6412 9.48413 26.6027 9.52801 26.5544L20.5349 14.5194C20.5765 14.4741 20.6086 14.421 20.6295 14.3632C20.6504 14.3053 20.6597 14.244 20.6567 14.1825C20.6542 14.1211 20.6395 14.0609 20.6135 14.0052C20.5875 13.9495 20.5507 13.8995 20.5053 13.8582L16.3061 10.0178C16.2202 9.93856 16.1075 9.89462 15.9907 9.8947Z" fill="#17414A"/>
<path d="M20.7238 13.3732C20.3718 13.3734 20.0326 13.2417 19.773 13.004L17.2212 10.6701C17.0844 10.5456 16.9736 10.3952 16.8953 10.2277C16.817 10.0601 16.7728 9.87862 16.7651 9.69381C16.7563 9.50877 16.7844 9.32384 16.8477 9.14974C16.911 8.97564 17.0082 8.81583 17.1337 8.6796L21.1952 4.2385C21.4312 3.98035 21.7496 3.91351 22.7432 3.91351C23.6043 3.91351 24.8929 3.97865 26.026 4.07945C26.5987 4.1304 27.0896 4.18695 27.4457 4.24309C28.0018 4.33071 28.4091 4.42342 28.5835 4.81993C28.6399 4.94886 28.6576 5.09141 28.6344 5.2302C28.6112 5.369 28.5481 5.49803 28.4528 5.60158L21.7637 12.9149C21.6316 13.0592 21.4709 13.1744 21.2919 13.2533C21.1129 13.3322 20.9194 13.3731 20.7238 13.3732ZM22.0894 5.33324L18.1654 9.62398C18.1655 9.62408 18.1651 9.63787 18.1653 9.63807L20.7238 11.9747C20.7253 11.9748 20.7268 11.9745 20.7282 11.9739C20.7295 11.9733 20.7307 11.9723 20.7317 11.9711L26.6108 5.54323C25.5405 5.42455 23.8823 5.31206 22.7433 5.31206C22.3985 5.31196 22.1989 5.32325 22.0894 5.33324ZM13.3603 20.9796C13.2247 20.9795 13.092 20.94 12.9784 20.8659C12.8648 20.7918 12.7752 20.6862 12.7205 20.5621C12.6659 20.438 12.6485 20.3006 12.6705 20.1668C12.6925 20.033 12.753 19.9084 12.8445 19.8083L18.1033 14.0578C18.1653 13.99 18.24 13.9351 18.3232 13.8962C18.4064 13.8573 18.4964 13.8352 18.5882 13.8311C18.6799 13.827 18.7716 13.841 18.8579 13.8724C18.9443 13.9037 19.0236 13.9517 19.0913 14.0137C19.1591 14.0757 19.214 14.1504 19.2529 14.2336C19.2918 14.3168 19.314 14.4069 19.3181 14.4986C19.3222 14.5904 19.3081 14.682 19.2768 14.7683C19.2455 14.8547 19.1975 14.934 19.1355 15.0018L13.8766 20.7522C13.8111 20.824 13.7314 20.8813 13.6425 20.9204C13.5535 20.9596 13.4574 20.9797 13.3603 20.9796ZM11.2933 23.2404C11.1577 23.2404 11.025 23.2009 10.9114 23.1268C10.7978 23.0527 10.7082 22.9472 10.6535 22.8231C10.5988 22.699 10.5814 22.5617 10.6033 22.4278C10.6253 22.294 10.6857 22.1694 10.7772 22.0693L11.1368 21.6757C11.2619 21.5388 11.4363 21.4572 11.6216 21.4488C11.8069 21.4405 11.9879 21.5061 12.1248 21.6311C12.2617 21.7562 12.3433 21.9306 12.3517 22.1159C12.3601 22.3011 12.2945 22.4822 12.1694 22.6191L11.8098 23.0127C11.7443 23.0846 11.6645 23.1419 11.5756 23.1811C11.4867 23.2203 11.3905 23.2405 11.2933 23.2404Z" fill="#17414A"/>
</svg>
