<svg width="32" height="33" viewBox="0 0 32 33" fill="none" xmlns="http://www.w3.org/2000/svg">
<path d="M18.01 5.52H14C13.4588 5.52 13.02 5.95877 13.02 6.5V16.51C13.02 17.0512 13.4588 17.49 14 17.49H18.01C18.5513 17.49 18.99 17.0512 18.99 16.51V6.5C18.99 5.95877 18.5513 5.52 18.01 5.52Z" fill="#2B545D"/>
<path d="M18 5.5H15.83C16.0952 5.5 16.3496 5.60536 16.5371 5.79289C16.7247 5.98043 16.83 6.23478 16.83 6.5V16.5C16.83 16.7652 16.7247 17.0196 16.5371 17.2071C16.3496 17.3946 16.0952 17.5 15.83 17.5H18C18.2652 17.5 18.5196 17.3946 18.7071 17.2071C18.8947 17.0196 19 16.7652 19 16.5V6.5C19 6.23478 18.8947 5.98043 18.7071 5.79289C18.5196 5.60536 18.2652 5.5 18 5.5Z" fill="#17414A"/>
<path d="M16 9.5C12.5522 9.5 9.24558 10.8696 6.80761 13.3076C4.36964 15.7456 3 19.0522 3 22.5V26.5C3 26.7652 3.10536 27.0196 3.29289 27.2071C3.48043 27.3946 3.73478 27.5 4 27.5H28C28.2652 27.5 28.5196 27.3946 28.7071 27.2071C28.8946 27.0196 29 26.7652 29 26.5V22.5C29 19.0522 27.6304 15.7456 25.1924 13.3076C22.7544 10.8696 19.4478 9.5 16 9.5Z" fill="#17414A"/>
<path d="M16 9.5C14.2605 9.50687 12.5402 9.86466 10.9423 10.552C9.34427 11.2393 7.90139 12.242 6.70001 13.5C8.63816 12.1227 10.9169 11.3033 13.2883 11.131C15.6598 10.9588 18.033 11.4401 20.1499 12.5228C22.2668 13.6055 24.0462 15.248 25.2945 17.2716C26.5428 19.2952 27.2123 21.6224 27.23 24V27.5H28C28.2652 27.5 28.5196 27.3946 28.7071 27.2071C28.8947 27.0196 29 26.7652 29 26.5V22.5C29 19.0522 27.6304 15.7456 25.1924 13.3076C22.7544 10.8696 19.4478 9.5 16 9.5Z" fill="#17414A"/>
<path d="M21.01 1.5H11C10.4588 1.5 10.02 1.93876 10.02 2.48V6.49C10.02 7.03124 10.4588 7.47 11 7.47H21.01C21.5513 7.47 21.99 7.03124 21.99 6.49V2.48C21.99 1.93876 21.5513 1.5 21.01 1.5Z" fill="#17414A"/>
<path d="M21 1.5H20.36V5.28C20.36 5.54522 20.2546 5.79957 20.0671 5.98711C19.8796 6.17464 19.6252 6.28 19.36 6.28H10V6.5C10 6.76522 10.1054 7.01957 10.2929 7.20711C10.4804 7.39464 10.7348 7.5 11 7.5H21C21.2652 7.5 21.5196 7.39464 21.7071 7.20711C21.8946 7.01957 22 6.76522 22 6.5V2.5C22 2.23478 21.8946 1.98043 21.7071 1.79289C21.5196 1.60536 21.2652 1.5 21 1.5Z" fill="#17414A"/>
<path d="M30 25.5H2C1.73478 25.5 1.48043 25.6054 1.29289 25.7929C1.10536 25.9804 1 26.2348 1 26.5V30.5C1 30.7652 1.10536 31.0196 1.29289 31.2071C1.48043 31.3946 1.73478 31.5 2 31.5H30C30.2652 31.5 30.5196 31.3946 30.7071 31.2071C30.8946 31.0196 31 30.7652 31 30.5V26.5C31 26.2348 30.8946 25.9804 30.7071 25.7929C30.5196 25.6054 30.2652 25.5 30 25.5Z" fill="#2C636F"/>
<path d="M30 25.5H29.4V29.18C29.4 29.4452 29.2946 29.6996 29.1071 29.8871C28.9196 30.0746 28.6652 30.18 28.4 30.18H1V30.5C1 30.7652 1.10536 31.0196 1.29289 31.2071C1.48043 31.3946 1.73478 31.5 2 31.5H30C30.2652 31.5 30.5196 31.3946 30.7071 31.2071C30.8946 31.0196 31 30.7652 31 30.5V26.5C31 26.2348 30.8946 25.9804 30.7071 25.7929C30.5196 25.6054 30.2652 25.5 30 25.5Z" fill="#17414A"/>
</svg>
