<svg width="160" height="154" viewBox="0 0 160 154" fill="none" xmlns="http://www.w3.org/2000/svg">
<path fill-rule="evenodd" clip-rule="evenodd" d="M2.88275 95.3841C-5.973 68.473 6.15113 33.7109 31.3449 15.4923C53.6477 -0.644219 78.0127 -3.57955 103.829 5.8409C105.584 6.48276 107.634 6.76455 109 9.18717C101.93 12.4787 95.0355 15.9541 87.9267 18.8933C84.207 20.4314 84.2148 21.6525 86.705 24.4744C91.199 29.5623 95.693 34.6971 98.8953 40.7674C97.4673 42.0511 96.6463 40.7557 95.7203 40.2977C79.3862 32.2863 61.8108 34.3801 48.928 45.8983C35.9479 57.5027 31.7962 74.4493 37.6521 91.8851C37.8972 92.6209 38.0061 93.3998 38.1812 94.1591C26.4229 94.8518 14.575 92.8479 2.88275 95.3841Z" fill="#F5F6F6"/>
<path fill-rule="evenodd" clip-rule="evenodd" d="M2.88281 95.3841C14.575 92.848 26.4229 94.8557 38.1774 94.1591C45.4262 107.415 55.8539 116.256 71.2036 118.331C81.4562 119.716 90.7866 117.004 99.8875 111.971C97.1211 118.691 92.5414 124.037 88.0396 129.43C83.7596 134.553 83.7674 134.526 89.9151 137.285C95.9071 139.978 102.012 142.451 108.436 146.58C81.0282 157.507 55.6671 155.836 32.0648 139.113C16.9446 128.405 6.68425 113.963 2.88281 95.3841Z" fill="#EEF0F2"/>
<path fill-rule="evenodd" clip-rule="evenodd" d="M160 79.7435C159.754 105.626 149.955 127.773 133.894 147.523C132.224 149.574 130.781 150.065 128.377 148.828C126.054 147.633 124.584 146.765 125.511 143.504C126.59 139.685 124.729 136.495 121.218 134.554C117.597 132.551 114.344 133.442 111.361 136.024C108.941 138.102 102.493 137.528 100.73 134.959C99.2363 132.778 101.641 131.82 102.544 130.629C111.107 119.405 117.621 107.225 120.166 93.1604C124.498 69.1908 117.417 48.3131 103.193 29.2703C102.141 27.8637 97.8444 26.0015 101.356 23.9349C103.866 22.4616 106.99 17.8571 110.997 22.5127C113.75 25.7068 117.316 26.6537 121.179 24.5046C124.909 22.4341 126.61 19.1143 125.296 14.9773C124.271 11.7635 126.457 11.3392 128.31 10.2784C130.547 8.9937 132.091 9.253 133.835 11.4021C150.053 31.3014 159.875 53.6367 160 79.7435ZM157.947 79.2996C157.721 55.2828 148.79 33.6312 133.35 14.4508C132.416 13.2918 131.653 11.7085 129.554 12.2939C126.93 13.0325 127.872 14.8948 127.892 16.6195C127.951 21.2201 125.933 24.701 121.796 26.7283C117.832 28.6691 113.867 28.1702 110.712 25.255C108.507 23.2081 106.528 22.8899 104.546 24.7089C102.153 26.913 105.109 28.2095 106.032 29.5099C129.632 62.7397 129.601 96.2759 105.93 129.643C104.996 130.955 102.075 132.276 104.526 134.456C106.505 136.228 108.479 136.067 110.696 133.957C113.82 131.003 117.769 130.48 121.753 132.433C125.91 134.472 127.904 137.937 127.79 142.549C127.747 144.306 126.938 146.16 129.515 146.867C131.88 147.511 132.67 145.61 133.706 144.309C148.669 125.569 157.439 104.46 157.947 79.2996Z" fill="#FBAD01"/>
<path fill-rule="evenodd" clip-rule="evenodd" d="M110.966 28.9167C122.344 32.0401 126.61 29.4392 131.27 16.5253C163.085 52.7409 163.449 105.682 131.329 142.435C126.481 128.979 120.968 126.127 109.426 131.12L109.484 131.254C108.151 129.427 109.973 128.437 110.696 127.337C131.575 95.3095 131.387 63.3801 110.411 31.4901C110.086 30.999 109.852 30.445 109.574 29.9264C110.036 29.5846 110.501 29.2506 110.966 28.9167Z" fill="#FBAD01"/>
</svg>
