<svg width="30" height="32" viewBox="0 0 30 32" fill="none" xmlns="http://www.w3.org/2000/svg">
<path d="M4.93457 24.6449C3.41826 24.6449 2.18469 25.8785 2.18469 27.3948C2.18469 28.911 3.41832 30.1447 4.93457 30.1447C6.45083 30.1447 7.68445 28.911 7.68445 27.3948C7.68445 25.8785 6.45083 24.6449 4.93457 24.6449ZM4.93457 29.0202C4.03832 29.0202 3.30926 28.291 3.30926 27.3948C3.30926 26.4987 4.03838 25.7695 4.93457 25.7695C5.83076 25.7695 6.55989 26.4987 6.55989 27.3948C6.55995 28.291 5.83076 29.0202 4.93457 29.0202Z" fill="#333333"/>
<path d="M20.9447 30.1447C22.461 30.1447 23.6946 28.9111 23.6946 27.3948C23.6946 25.8786 22.461 24.645 20.9447 24.645C19.4285 24.645 18.1948 25.8786 18.1948 27.3948C18.1948 28.9111 19.4284 30.1447 20.9447 30.1447ZM20.9447 25.7695C21.841 25.7695 22.57 26.4986 22.57 27.3948C22.57 28.291 21.8409 29.0201 20.9447 29.0201C20.0485 29.0201 19.3194 28.291 19.3194 27.3948C19.3194 26.4986 20.0485 25.7695 20.9447 25.7695Z" fill="#333333"/>
<path d="M29.1082 6.45608H27.2517C27.0691 6.45608 26.8978 6.54476 26.7925 6.69395L24.6188 9.77133H13.2072L16.3811 0.748877C16.4416 0.576814 16.4149 0.386126 16.3094 0.237313C16.2041 0.0884377 16.0329 0 15.8506 0H9.21824C4.4061 0 0.491156 3.91495 0.491156 8.72714V11.4993C0.491156 15.8039 3.55004 19.4073 7.60823 20.2505L11.6771 22.1589L7.94967 23.9182C7.14111 23.216 6.08704 22.7896 4.93466 22.7896C2.39528 22.7896 0.329468 24.8556 0.329468 27.3948C0.329468 29.9342 2.39541 32 4.93466 32C7.47392 32 9.53986 29.9341 9.53986 27.3948C9.53986 27.0318 9.4963 26.6789 9.41655 26.3399H16.4629C16.3831 26.6789 16.3396 27.0317 16.3396 27.3948C16.3396 29.9342 18.4055 32 20.9448 32C23.484 32 25.55 29.9341 25.55 27.3948C25.55 24.8554 23.484 22.7896 20.9448 22.7896C19.8168 22.7896 18.7828 23.198 17.9812 23.8737L14.3186 22.1557L18.3556 20.2503C22.4134 19.4067 25.472 15.8035 25.472 11.4991V10.5126L27.543 7.58058H29.1083C29.4188 7.58058 29.6705 7.32883 29.6705 7.01833C29.6705 6.70783 29.4188 6.45608 29.1082 6.45608ZM24.3474 11.4992C24.3474 11.7886 24.3311 12.0742 24.3003 12.3555H14.1309C13.4939 12.3555 12.9755 11.8372 12.9755 11.2001V10.8958H24.3473V11.4992H24.3474ZM12.9754 7.04126V1.12456H15.0568L12.9754 7.04126ZM1.61566 8.72714C1.61566 4.53501 5.02617 1.12456 9.21824 1.12456H11.8509V9.77133H1.61566V8.72714ZM4.9346 30.8756C3.01535 30.8756 1.45397 29.3141 1.45397 27.3949C1.45397 25.4757 3.01541 23.9143 4.9346 23.9143C6.85379 23.9143 8.41523 25.4757 8.41523 27.3949C8.41523 29.3141 6.85386 30.8756 4.9346 30.8756ZM20.9447 23.9141C22.864 23.9141 24.4253 25.4756 24.4253 27.3947C24.4253 29.314 22.8639 30.8754 20.9447 30.8754C19.0255 30.8754 17.4641 29.3139 17.4641 27.3947C17.4641 25.4756 19.0254 23.9141 20.9447 23.9141ZM17.1839 24.7419C17.0768 24.8934 16.9776 25.0511 16.889 25.2154H8.9903C8.91161 25.0695 8.82498 24.9286 8.73161 24.7927L12.9986 22.7788L17.1839 24.7419ZM10.6544 20.4372H15.325L12.997 21.536L10.6544 20.4372ZM16.534 19.3127H9.42911C5.12079 19.3127 1.61572 15.8075 1.61572 11.4993V10.8958H11.8511V11.2001C11.8511 12.4573 12.8739 13.4801 14.1311 13.4801H24.0928C23.2136 16.8323 20.1581 19.3127 16.534 19.3127Z" fill="#333333"/>
</svg>
