<svg width="32" height="32" viewBox="0 0 32 32" fill="none" xmlns="http://www.w3.org/2000/svg">
<g clip-path="url(#clip0_395_1514)">
<path d="M19.7809 2.54113C18.6586 1.92538 17.3702 1.57488 16 1.57488C14.6294 1.57488 13.3411 1.92538 12.2189 2.54113C11.7211 1.436 10.6101 0.666687 9.31932 0.666687C7.56394 0.666687 6.14087 2.08988 6.14087 3.84526C6.14087 5.33208 7.16169 6.58027 8.54063 6.92752C8.27375 7.71821 8.12906 8.56509 8.12906 9.4456C8.12906 11.131 8.65888 12.6925 9.56088 13.9731C9.5612 13.9734 9.56176 13.9739 9.56213 13.9742C10.1914 14.8677 11.0021 15.6241 11.9406 16.19C13.1256 16.9051 14.5147 17.3164 16 17.3164C17.485 17.3164 18.8742 16.9051 20.0594 16.19C20.9979 15.6242 21.8086 14.8679 22.4377 13.9742C22.4384 13.9739 22.4389 13.9732 22.4392 13.9728C23.3412 12.6924 23.8707 11.1309 23.8707 9.4456C23.8707 8.56509 23.726 7.71828 23.4592 6.92752C24.8382 6.58027 25.8591 5.33202 25.8591 3.84526C25.859 2.08988 24.4359 0.666687 22.6804 0.666687C21.3898 0.666687 20.2787 1.436 19.7809 2.54113Z" fill="#59676E"/>
<path d="M11.9406 16.19C11.0021 15.6242 10.1913 14.8677 9.56215 13.9742C9.56158 13.974 9.56121 13.9734 9.5609 13.973C9.05396 13.4706 8.35633 13.1603 7.58651 13.1603C6.0372 13.1603 4.78113 14.4164 4.78113 15.9657C4.78113 17.515 6.0372 18.771 7.58651 18.771C7.65608 18.771 7.72495 18.7684 7.79326 18.7634C7.68858 19.3682 7.63339 19.9936 7.63339 20.6335C7.63339 21.8546 7.83351 23.0222 8.19733 24.0959C9.98965 24.3191 11.3767 25.8479 11.3767 27.7006C11.3767 27.9898 11.3428 28.2711 11.2788 28.5408C12.6226 29.5941 14.2482 30.2105 16 30.2105C17.7516 30.2105 19.3773 29.594 20.7212 28.5408C21.1002 30.1419 22.5389 31.3335 24.256 31.3335C26.2623 31.3335 27.8888 29.7069 27.8888 27.7006C27.8888 25.6945 26.2623 24.0679 24.256 24.0679C24.1024 24.0679 23.9511 24.0776 23.8025 24.096C24.1666 23.0222 24.3665 21.8547 24.3665 20.6336C24.3665 19.9937 24.3111 19.3684 24.2066 18.7634C24.2749 18.7684 24.3438 18.771 24.4135 18.771C25.9627 18.771 27.2188 17.5151 27.2188 15.9657C27.2188 14.4165 25.9627 13.1604 24.4135 13.1604C23.6435 13.1604 22.9461 13.4705 22.4393 13.9728C21.8098 14.8668 20.9985 15.6237 20.0595 16.19C20.3505 17.0123 20.5139 17.9362 20.5139 18.9127C20.5139 22.3476 18.493 25.1323 16.0001 25.1323C13.507 25.1323 11.4859 22.3477 11.4859 18.9127C11.4858 17.9361 11.6493 17.0122 11.9406 16.19Z" fill="#59676E"/>
<path d="M11.9406 16.19C11.6494 17.0123 11.4858 17.9362 11.4858 18.9127C11.4858 22.3476 13.5069 25.1322 16 25.1322C18.493 25.1322 20.5139 22.3477 20.5139 18.9127C20.5139 17.9361 20.3504 17.0122 20.0594 16.19C19.0849 16.7776 18.0119 17.1355 16.9174 17.2635C16.6127 17.2992 16.3063 17.3169 16 17.3164C15.688 17.3169 15.3761 17.2985 15.0659 17.2614C13.9328 17.1276 12.8735 16.753 11.9406 16.19Z" fill="#F9EACD"/>
<path d="M7.74384 31.3333C9.7446 31.3333 11.3765 29.7015 11.3765 27.7007C11.3765 25.6998 9.7446 24.0679 7.74384 24.0679C5.74296 24.0679 4.11121 25.6998 4.11121 27.7007C4.11127 29.7014 5.74302 31.3333 7.74384 31.3333Z" fill="#59676E"/>
<path d="M24.694 23.4233C24.9192 22.5197 25.033 21.5848 25.033 20.6335C25.033 20.2196 25.0109 19.8048 24.9671 19.3936C26.6192 19.1276 27.8852 17.6917 27.8852 15.9657C27.8852 14.0512 26.3277 12.4937 24.4132 12.4937C24.2614 12.4937 24.1112 12.5044 23.963 12.5234C24.3335 11.5681 24.5372 10.5302 24.5372 9.44566C24.5372 8.73285 24.4497 8.02884 24.2767 7.34515C25.6287 6.73059 26.5256 5.37496 26.5256 3.84533C26.5257 1.72494 24.8007 0 22.6803 0C21.4042 0 20.2233 0.63544 19.5136 1.66344C18.415 1.16788 17.2127 0.908191 15.9999 0.908191C14.7869 0.908191 13.5845 1.16788 12.4859 1.66344C11.7762 0.63544 10.5954 0 9.31923 0C7.19898 0 5.47409 1.72494 5.47409 3.84533C5.47409 5.37496 6.37078 6.73059 7.72285 7.34515C7.54979 8.02866 7.46229 8.73266 7.46229 9.44566C7.46229 10.5303 7.6661 11.5681 8.03654 12.5234C7.88835 12.5043 7.73816 12.4937 7.58635 12.4937C5.67184 12.4937 4.11428 14.0512 4.11428 15.9657C4.11428 17.6916 5.38028 19.1276 7.03247 19.3936C6.98872 19.8046 6.9666 20.2193 6.9666 20.6335C6.9666 21.585 7.08041 22.5198 7.3056 23.4233C7.3056 23.4233 7.30541 23.4233 7.30529 23.4233C7.3016 23.4237 7.29804 23.4243 7.29435 23.4247C7.22798 23.4317 7.1621 23.44 7.09654 23.4499C7.07397 23.4533 7.05185 23.4578 7.02954 23.4616C6.98329 23.4694 6.93685 23.4772 6.89104 23.4864C6.86466 23.4917 6.83872 23.4981 6.81247 23.504C6.77116 23.5131 6.72979 23.5222 6.68891 23.5326C6.66135 23.5395 6.63416 23.5475 6.60691 23.5549C6.56791 23.5657 6.52897 23.5763 6.49041 23.5881C6.46253 23.5965 6.4351 23.6058 6.40753 23.6149C6.37016 23.6272 6.33285 23.6395 6.29585 23.6528C6.2681 23.6627 6.24078 23.6733 6.21328 23.6838C6.1771 23.6976 6.1411 23.7117 6.10541 23.7264C6.07816 23.7377 6.05116 23.7495 6.0241 23.7613C5.98897 23.7767 5.95391 23.7924 5.91928 23.8088C5.8926 23.8213 5.86616 23.8342 5.83972 23.8473C5.80547 23.8643 5.77159 23.8817 5.73784 23.8996C5.71184 23.9133 5.68609 23.9272 5.66047 23.9415C5.62703 23.9601 5.59391 23.9793 5.56097 23.9987C5.53597 24.0135 5.51109 24.0283 5.48634 24.0436C5.45353 24.0639 5.42116 24.0849 5.38897 24.1062C5.36516 24.1218 5.34128 24.1373 5.31778 24.1535C5.28547 24.1757 5.25359 24.1987 5.22191 24.2217C5.19947 24.238 5.1769 24.2542 5.15478 24.2709C5.12259 24.2952 5.09109 24.3205 5.05959 24.3457C5.03884 24.3623 5.0179 24.3787 4.99747 24.3957C4.96478 24.4229 4.93284 24.451 4.90097 24.4793C4.88278 24.4953 4.86422 24.511 4.84634 24.5273C4.81072 24.5599 4.77609 24.5935 4.74153 24.6272C4.72834 24.6402 4.71465 24.6525 4.70153 24.6657C4.60684 24.7607 4.51659 24.8599 4.43096 24.9633C4.4184 24.9783 4.40678 24.994 4.39453 25.0092C4.3649 25.046 4.33534 25.0828 4.3069 25.1207C4.2919 25.1407 4.27771 25.1611 4.26303 25.1814C4.2384 25.2153 4.21378 25.2493 4.19009 25.284C4.17478 25.3064 4.16015 25.3295 4.14515 25.3523C4.1234 25.3855 4.10159 25.4188 4.08065 25.4527C4.06565 25.477 4.05146 25.5017 4.03703 25.5263C4.01734 25.5596 3.99784 25.593 3.97909 25.6269C3.9649 25.6526 3.95134 25.6785 3.93771 25.7045C3.91996 25.7382 3.90246 25.7719 3.88565 25.806C3.87246 25.8329 3.85971 25.8599 3.84696 25.887C3.83109 25.9212 3.8154 25.9555 3.80034 25.9901C3.78821 26.0178 3.77652 26.0457 3.76509 26.0737C3.75077 26.1085 3.73696 26.1436 3.72352 26.1789C3.71271 26.2074 3.70221 26.2359 3.69184 26.2647C3.67921 26.3003 3.66715 26.3362 3.6554 26.3722C3.64596 26.4012 3.63659 26.4303 3.62771 26.4595C3.61671 26.4961 3.60646 26.5329 3.59634 26.5698C3.58834 26.5992 3.58027 26.6285 3.57277 26.6582C3.56334 26.6958 3.55484 26.7339 3.54646 26.7719C3.5399 26.8013 3.53321 26.8308 3.52721 26.8605C3.51946 26.8997 3.51277 26.9394 3.50609 26.9789C3.50121 27.0079 3.49584 27.0369 3.4914 27.0661C3.48521 27.1078 3.48034 27.1499 3.4754 27.1919C3.47215 27.2196 3.46827 27.247 3.46552 27.2749C3.4609 27.3215 3.45784 27.3686 3.45477 27.4157C3.45321 27.4394 3.45084 27.4628 3.44971 27.4866C3.44615 27.5576 3.44434 27.629 3.44434 27.7008C3.44434 27.849 3.45177 27.9954 3.46652 28.1397C3.68715 30.3051 5.52109 32.0002 7.74366 32.0002H7.74379C7.74392 32.0002 7.7441 32.0002 7.7441 32.0002C7.81073 32.0002 7.87698 31.9981 7.94285 31.9951C7.9591 31.9944 7.97517 31.9934 7.99142 31.9926C8.05173 31.9892 8.11198 31.9846 8.17167 31.9788C8.1766 31.9783 8.18154 31.9779 8.18654 31.9774C9.67948 31.8259 10.9657 30.9152 11.6093 29.5892C12.9468 30.4345 14.4483 30.8772 15.9999 30.8772C17.5512 30.8772 19.0527 30.4344 20.3904 29.5891C21.0967 31.0447 22.5773 32.0002 24.2559 32.0002C26.6266 32.0002 28.5552 30.0715 28.5552 27.7008C28.5552 25.4778 26.8597 23.6435 24.694 23.4233ZM6.80747 3.84533C6.80747 2.46026 7.93423 1.33344 9.31923 1.33344C10.306 1.33344 11.2056 1.91501 11.6109 2.81501C11.6873 2.98457 11.8309 3.11451 12.0072 3.17351C12.1837 3.23251 12.3766 3.2152 12.5396 3.12576C13.5936 2.54739 14.7901 2.2417 15.9999 2.2417C17.2096 2.2417 18.406 2.54739 19.46 3.12576C19.6231 3.21514 19.816 3.23258 19.9923 3.17351C20.1686 3.11451 20.3123 2.98457 20.3886 2.81507C20.7941 1.91501 21.6937 1.33344 22.6805 1.33344C24.0655 1.33344 25.1924 2.46026 25.1924 3.84533C25.1924 4.99839 24.4127 5.99996 23.2963 6.28109C23.116 6.32646 22.9628 6.44515 22.8738 6.6084C22.7847 6.77165 22.7679 6.96465 22.8274 7.14084C23.0772 7.88128 23.2039 8.65672 23.2039 9.44572C23.2039 13.4181 19.9722 16.6498 15.9999 16.6498C12.0276 16.6498 8.79573 13.4181 8.79573 9.44572C8.79573 8.66791 8.91936 7.90366 9.16205 7.17322C9.16623 7.16278 9.17048 7.1524 9.17417 7.14159C9.32842 6.68465 9.52961 6.24159 9.77186 5.82484C9.95686 5.50646 9.8488 5.09839 9.53061 4.91339C9.21217 4.72839 8.80417 4.83639 8.61911 5.15477C8.44711 5.45077 8.29292 5.75808 8.15735 6.07327C7.34116 5.64871 6.80747 4.79902 6.80747 3.84533ZM19.8471 18.9128C19.8471 20.4345 19.4228 21.8572 18.6521 22.919C17.9283 23.9163 16.9864 24.4656 15.9999 24.4656C15.0133 24.4656 14.0713 23.9163 13.3474 22.919C12.5768 21.8573 12.1524 20.4345 12.1524 18.9128C12.1524 18.3093 12.2202 17.724 12.3511 17.1632C13.4582 17.6887 14.6952 17.9833 15.9999 17.9833C17.3046 17.9833 18.5415 17.6887 19.6485 17.1632C19.7794 17.7239 19.8471 18.3093 19.8471 18.9128ZM10.619 28.4294C10.6169 28.4377 10.6147 28.4458 10.6126 28.4541C10.3164 29.5814 9.3718 30.4486 8.20304 30.6311C8.19667 30.6321 8.19017 30.633 8.18379 30.6339C8.14523 30.6397 8.10654 30.6445 8.0676 30.6487C8.05567 30.65 8.04385 30.6514 8.03185 30.6526C7.9966 30.6559 7.96098 30.6585 7.92529 30.6607C7.91242 30.6615 7.89948 30.6626 7.8866 30.6631C7.83948 30.6654 7.7921 30.6667 7.74441 30.6667C7.74423 30.6667 7.74404 30.6667 7.74373 30.6667C6.31266 30.6667 5.11503 29.648 4.83797 28.2977C4.7984 28.1049 4.77772 27.9052 4.77772 27.7008C4.77772 27.4964 4.79853 27.2967 4.83797 27.1037C5.11503 25.7535 6.31266 24.7347 7.74373 24.7347C7.80073 24.7347 7.85823 24.7367 7.9156 24.74C7.93292 24.741 7.95017 24.7427 7.96742 24.744C8.00667 24.7469 8.04579 24.7504 8.08485 24.7549C9.56017 24.9247 10.7097 26.1807 10.7097 27.7007C10.7098 27.9521 10.6781 28.1962 10.619 28.4294ZM24.2559 30.6667C22.8743 30.6667 21.6877 29.7293 21.3697 28.3871C21.3624 28.3558 21.3523 28.3257 21.3407 28.2962C21.3004 28.1003 21.2788 27.9005 21.2788 27.7007C21.2788 27.3766 21.3316 27.0565 21.4355 26.7494C21.5536 26.4007 21.3667 26.0222 21.0179 25.9041C20.6692 25.786 20.2907 25.973 20.1725 26.3217C20.0218 26.7669 19.9454 27.2308 19.9454 27.7007C19.9454 27.8866 19.9587 28.0724 19.9828 28.2569C18.7826 29.0994 17.414 29.5438 15.9998 29.5438C14.5813 29.5438 13.2091 29.0971 12.0068 28.2501C12.0299 28.07 12.0431 27.887 12.0431 27.7007C12.0431 25.6629 10.6174 23.9528 8.71154 23.5124C8.43835 22.5882 8.29979 21.6217 8.29979 20.6335C8.29979 20.0437 8.35036 19.4527 8.44992 18.8771C8.48492 18.6749 8.42486 18.4678 8.28704 18.3157C8.14917 18.1636 7.9486 18.0835 7.74429 18.0986C7.69179 18.1024 7.63854 18.1044 7.58623 18.1044C6.40697 18.1044 5.44759 17.145 5.44759 15.9658C5.44759 14.7866 6.40703 13.8272 7.58623 13.8272C8.14379 13.8272 8.66923 14.0401 9.06992 14.4266C9.64211 15.2203 10.347 15.9121 11.1521 16.4695C10.931 17.2472 10.8189 18.0668 10.8189 18.9129C10.8189 20.7137 11.3336 22.4146 12.2682 23.7023C13.2496 25.0543 14.5749 25.799 15.9998 25.799C17.4246 25.799 18.7498 25.0544 19.7313 23.7023C20.6658 22.4146 21.1805 20.7137 21.1805 18.9129C21.1805 18.0667 21.0685 17.2472 20.8474 16.4695C21.6524 15.9122 22.3573 15.2204 22.9295 14.4266C23.3301 14.0402 23.8555 13.8272 24.4132 13.8272C25.5924 13.8272 26.5517 14.7866 26.5517 15.9658C26.5517 17.145 25.5924 18.1044 24.4132 18.1044C24.3606 18.1044 24.3075 18.1024 24.2552 18.0986C24.0507 18.0834 23.8503 18.1636 23.7124 18.3156C23.5745 18.4677 23.5143 18.6748 23.5494 18.877C23.649 19.4534 23.6995 20.0443 23.6995 20.6335C23.6995 21.7538 23.5217 22.8468 23.1708 23.882C23.0972 24.0994 23.1405 24.3393 23.2855 24.5172C23.4305 24.6951 23.6567 24.786 23.8846 24.7577C24.0074 24.7424 24.1323 24.7347 24.2559 24.7347C25.8914 24.7347 27.2218 26.0653 27.2218 27.7008C27.2219 29.3362 25.8914 30.6667 24.2559 30.6667Z" fill="#000003"/>
<path d="M13.2479 9.10627C13.7987 9.10627 14.2479 8.65702 14.2479 8.1062C14.2479 7.55558 13.7987 7.10632 13.2479 7.10632C12.6971 7.10632 12.2479 7.55558 12.2479 8.1062C12.2479 8.65702 12.6971 9.10627 13.2479 9.10627Z" fill="#000003"/>
<path d="M18.7519 9.10627C19.3027 9.10627 19.752 8.65702 19.752 8.1062C19.752 7.55558 19.3027 7.10632 18.7519 7.10632C18.2011 7.10632 17.7518 7.55558 17.7518 8.1062C17.7518 8.65702 18.201 9.10627 18.7519 9.10627Z" fill="#000003"/>
<path d="M15.9999 11.6824C16.5508 11.6824 16.9999 11.2333 16.9999 10.6825C16.9999 10.1317 16.5508 9.68243 15.9999 9.68243C15.4491 9.68243 14.9999 10.1317 14.9999 10.6825C14.9999 11.2333 15.4491 11.6824 15.9999 11.6824Z" fill="#000003"/>
<path d="M21.4921 24.3979L21.4801 24.4081C21.1953 24.6416 21.1536 25.0616 21.3871 25.3464C21.5189 25.5072 21.7102 25.5904 21.903 25.5904C22.0517 25.5904 22.2014 25.5409 22.3253 25.4393L22.3485 25.4199C22.6307 25.1834 22.6678 24.7629 22.4313 24.4807C22.1949 24.1986 21.7743 24.1614 21.4921 24.3979Z" fill="#000003"/>
<path d="M10.3053 4.67895C10.481 4.67895 10.6563 4.60995 10.7873 4.47301L10.7982 4.46138C11.0512 4.19382 11.0393 3.77188 10.7718 3.51888C10.5043 3.26594 10.0823 3.27769 9.82934 3.54519C9.82859 3.546 9.82378 3.55107 9.82203 3.55307C9.56903 3.81925 9.57903 4.24019 9.84472 4.49413C9.97384 4.61757 10.1397 4.67895 10.3053 4.67895Z" fill="#000003"/>
</g>
<defs>
<clipPath id="clip0_395_1514">
<rect width="32" height="32" fill="white"/>
</clipPath>
</defs>
</svg>
