<svg width="32" height="32" viewBox="0 0 32 32" fill="none" xmlns="http://www.w3.org/2000/svg">
<g clip-path="url(#clip0_395_1442)">
<path d="M27.31 0H4.69008C3.66133 0 2.82727 0.833938 2.82727 1.86281V30.1373C2.82727 31.166 3.66121 32.0001 4.69008 32.0001H27.31C28.3387 32.0001 29.1728 31.1661 29.1728 30.1373V1.86281C29.1728 0.834063 28.3387 0 27.31 0Z" fill="#17414A"/>
<path d="M15.9996 29.7939C21.9614 29.7939 26.7945 24.9609 26.7945 18.999C26.7945 13.0372 21.9614 8.20416 15.9996 8.20416C10.0377 8.20416 5.20471 13.0372 5.20471 18.999C5.20471 24.9609 10.0377 29.7939 15.9996 29.7939Z" fill="#CCCCCC"/>
<path d="M15.9996 29.0729C21.5632 29.0729 26.0734 24.5627 26.0734 18.999C26.0734 13.4354 21.5632 8.92523 15.9996 8.92523C10.436 8.92523 5.92578 13.4354 5.92578 18.999C5.92578 24.5627 10.436 29.0729 15.9996 29.0729Z" fill="white"/>
<path d="M19.885 18.9988C19.885 17.2819 20.4926 15.7069 21.5043 14.4769C20.1978 12.8884 18.2173 11.8753 16 11.8753C12.0658 11.8753 8.87646 15.0646 8.87646 18.9988C8.87646 22.933 12.0658 26.1223 16 26.1223C18.2172 26.1223 20.1978 25.1092 21.5043 23.5207C20.4925 22.2907 19.885 20.7157 19.885 18.9988Z" fill="#17414A"/>
<path d="M21.1134 5.25744V0H19.9844V5.25744H12.0156V0H10.8866V5.25744H2.82727V6.38644H29.1728V5.25744H21.1134Z" fill="#66919F"/>
<path d="M9.27071 0H5.41553V2.21344H9.27071V0Z" fill="#66919F"/>
<path d="M27.2963 1.20422H22.7805V2.33322H27.2963V1.20422Z" fill="#66919F"/>
<path d="M27.2963 3.18683H22.7805V4.31583H27.2963V3.18683Z" fill="#66919F"/>
<path d="M19.8854 18.9986C19.8854 19.6383 19.9697 20.2578 20.1278 20.8479C19.421 22.4233 17.8389 23.5206 16.0001 23.5206C13.5027 23.5206 11.478 21.4959 11.478 18.9986C11.478 16.5012 13.5027 14.4765 16.0001 14.4765C17.8389 14.4765 19.421 15.5739 20.1278 17.15C19.9697 17.7394 19.8854 18.3588 19.8854 18.9986Z" fill="#5B8E9A"/>
</g>
<defs>
<clipPath id="clip0_395_1442">
<rect width="32" height="32" fill="white"/>
</clipPath>
</defs>
</svg>
