<svg width="32" height="32" viewBox="0 0 32 32" fill="none" xmlns="http://www.w3.org/2000/svg">
<g clip-path="url(#clip0_395_1482)">
<path d="M18.1057 26.9458C16.6364 28.5385 16 31.4666 16 31.4666C16 31.4666 18.8682 30.5989 20.3386 29.0057C21.8094 27.4125 21.9396 26.2687 21.3239 25.7C20.7084 25.1312 19.5761 25.3536 18.1057 26.9458Z" fill="#A6DDDD"/>
<path d="M13.8937 26.9458C15.3635 28.5385 16 31.4666 16 31.4666C16 31.4666 13.1312 30.5989 11.6604 29.0057C10.1906 27.4125 10.0599 26.2687 10.676 25.7C11.2911 25.1312 12.4234 25.3536 13.8937 26.9458Z" fill="#A6DDDD"/>
<path d="M18.1057 21.275C16.6364 22.8677 16 25.7958 16 25.7958C16 25.7958 18.8682 24.9281 20.3386 23.3354C21.8094 21.7417 21.9396 20.5974 21.3239 20.0281C20.7084 19.4604 19.5761 19.6823 18.1057 21.275Z" fill="#A6DDDD"/>
<path d="M13.8937 21.275C15.3635 22.8677 16 25.7958 16 25.7958C16 25.7958 13.1312 24.9281 11.6604 23.3354C10.1906 21.7417 10.0599 20.5974 10.676 20.0281C11.2911 19.4604 12.4234 19.6823 13.8937 21.275Z" fill="#A6DDDD"/>
<path d="M23.1136 7.14895C23.9261 5.97915 23.811 4.36352 22.7677 3.3229C21.7177 2.2729 20.0844 2.16926 18.9162 3.00102C18.6677 1.59374 17.4406 0.533325 15.9625 0.533325C14.4802 0.533325 13.249 1.61145 13.0094 3.02655C11.838 2.21561 10.2203 2.33071 9.17918 3.3729C8.12031 4.4302 8.025 6.0677 8.8776 7.23852C7.4625 7.4802 6.39062 8.69426 6.39062 10.1776C6.39062 11.6646 7.46719 12.8953 8.88385 13.1359C8.07344 14.3047 8.19063 15.9219 9.2323 16.963C10.2813 18.0114 11.9146 18.1208 13.0844 17.2885C13.3401 18.6906 14.5656 19.75 16.037 19.75C17.5198 19.75 18.7531 18.6729 18.9943 17.2568C20.1614 18.0661 21.7791 17.9531 22.8209 16.9104C23.8677 15.8615 23.9781 14.2266 23.1485 13.0562C24.5479 12.8047 25.6094 11.5781 25.6094 10.1068C25.6094 8.61977 24.5291 7.38853 23.1136 7.14895Z" fill="#FBAD01"/>
<path d="M16.0006 14.9729C13.3328 14.9729 11.1677 12.8115 11.1677 10.1427C11.1677 7.475 13.3302 5.3125 15.9979 5.3125C18.6688 5.3125 20.8313 7.475 20.8313 10.1427C20.8313 12.8104 18.6688 14.9729 16.0006 14.9729Z" fill="#FFFFFD"/>
<path d="M16 32C15.8677 32 15.7381 31.9505 15.6381 31.8583C15.4995 31.7302 15.4386 31.538 15.4787 31.3531C15.5063 31.2281 16.1641 28.2641 17.7136 26.5844C18.7563 25.4552 19.7193 24.8828 20.5756 24.8828C21.0006 24.8828 21.3844 25.0297 21.686 25.3083C22.0396 25.6349 23.0151 26.8927 20.7302 29.3677C19.1797 31.0479 16.2771 31.9401 16.1547 31.9771C16.1037 31.9927 16.0516 32 16 32ZM20.5756 25.9495C20.3282 25.9495 19.6297 26.0818 18.4974 27.3078C17.6485 28.2281 17.0896 29.662 16.7896 30.611C17.7125 30.2354 19.0985 29.563 19.9464 28.6443C21.0032 27.4995 21.4016 26.4979 20.962 26.0917C20.8584 25.9958 20.7318 25.9495 20.5756 25.9495Z" fill="#17414A"/>
<path d="M16 32C15.9485 32 15.8964 31.9927 15.8459 31.9771C15.723 31.9401 12.8198 31.0479 11.2688 29.3677C8.98442 26.8917 9.96098 25.6344 10.3141 25.3083C10.6151 25.0297 10.999 24.8828 11.424 24.8828C12.2802 24.8828 13.2433 25.4552 14.2855 26.5839C15.836 28.2641 16.4938 31.2281 16.5214 31.3531C16.5615 31.538 16.5006 31.7302 16.362 31.8583C16.262 31.9505 16.1323 32 16 32ZM11.424 25.9495C11.2677 25.9495 11.1417 25.9958 11.0381 26.0917C10.5985 26.4979 10.9964 27.4995 12.0526 28.6443C12.9026 29.5651 14.2881 30.2365 15.2099 30.6115C14.9089 29.6615 14.3495 28.2261 13.5016 27.3073C12.3698 26.0818 11.6719 25.9495 11.424 25.9495Z" fill="#17414A"/>
<path d="M16 26.3292C15.8677 26.3292 15.7381 26.2797 15.6381 26.1875C15.4995 26.0594 15.4386 25.8672 15.4787 25.6823C15.5063 25.5573 16.1641 22.5932 17.7136 20.9135C18.7563 19.7838 19.7193 19.2114 20.5761 19.2114C21.0006 19.2114 21.3844 19.3583 21.6854 19.6359C22.0396 19.9635 23.0151 21.2219 20.7308 23.6969C19.1797 25.3771 16.2771 26.2693 16.1547 26.3062C16.1037 26.3219 16.0516 26.3292 16 26.3292ZM20.5761 20.2781C20.3282 20.2781 19.6297 20.4104 18.4974 21.637C17.6485 22.5573 17.0896 23.9911 16.7896 24.9401C17.7125 24.5645 19.0985 23.8922 19.9469 22.9734C21.0032 21.8286 21.4016 20.8265 20.962 20.4198C20.8589 20.3245 20.7323 20.2781 20.5761 20.2781Z" fill="#17414A"/>
<path d="M16 26.3292C15.9485 26.3292 15.8964 26.3219 15.8459 26.3062C15.7229 26.2693 12.8203 25.3771 11.2688 23.6974C8.98493 21.2208 9.96046 19.963 10.3141 19.6364C10.6157 19.3583 10.999 19.2114 11.4235 19.2114C12.2802 19.2114 13.2433 19.7838 14.2854 20.913C15.836 22.5932 16.4938 25.5573 16.5214 25.6823C16.5615 25.8672 16.5006 26.0594 16.362 26.1875C16.262 26.2797 16.1323 26.3292 16 26.3292ZM11.4235 20.2781C11.2677 20.2781 11.1412 20.3245 11.0381 20.4198C10.598 20.826 10.9964 21.8286 12.0526 22.9739C12.9026 23.8943 14.2881 24.5656 15.2099 24.9406C14.9089 23.9911 14.3495 22.5552 13.5016 21.6364C12.3698 20.4104 11.6714 20.2781 11.4235 20.2781Z" fill="#17414A"/>
<path d="M16.037 20.2833C14.575 20.2833 13.2937 19.3912 12.762 18.0813C12.3208 18.2739 11.8432 18.3739 11.3511 18.3739C10.4083 18.3739 9.52187 18.0068 8.8552 17.3401C7.82031 16.3057 7.54427 14.7687 8.0948 13.4682C6.76457 12.9479 5.8573 11.6599 5.8573 10.1776C5.8573 8.71146 6.75519 7.4349 8.07447 6.9125C7.48594 5.6026 7.74792 4.04844 8.80207 2.99531C9.46875 2.32812 10.3562 1.96094 11.3005 1.96094C11.7786 1.96094 12.2448 2.05521 12.6766 2.23803C13.1958 0.907286 14.4818 0 15.9625 0C17.4318 0 18.714 0.894276 19.2411 2.20678C19.6828 2.01406 20.161 1.91406 20.6531 1.91406C21.5948 1.91406 22.4797 2.28021 23.1448 2.94584C24.1802 3.97865 24.4552 5.5151 23.9031 6.81666C25.2349 7.33646 26.1427 8.62396 26.1427 10.1068C26.1427 11.5703 25.2505 12.851 23.9411 13.3797C24.513 14.688 24.2443 16.239 23.1985 17.287C22.5318 17.9547 21.6448 18.3224 20.7011 18.3224C20.2229 18.3219 19.7578 18.2276 19.3265 18.0453C18.8062 19.3761 17.5182 20.2833 16.037 20.2833ZM13.0844 16.7552C13.1521 16.7552 13.2203 16.7682 13.2854 16.7943C13.4542 16.863 13.5766 17.0136 13.6088 17.1927C13.8229 18.3656 14.8443 19.2167 16.037 19.2167C17.2437 19.2167 18.2661 18.3547 18.4687 17.1672C18.4989 16.9875 18.6193 16.836 18.7875 16.7651C18.9562 16.6938 19.1479 16.7146 19.2985 16.8188C19.7104 17.1042 20.1953 17.2552 20.7011 17.2557C21.3594 17.2557 21.9787 16.999 22.4438 16.5334C23.2959 15.6792 23.4094 14.3469 22.7136 13.3646C22.6078 13.2156 22.586 13.0234 22.6547 12.8542C22.7239 12.6854 22.8745 12.5635 23.0541 12.5313C24.2255 12.3208 25.076 11.301 25.076 10.1068C25.076 8.89897 24.213 7.87604 23.0245 7.675C22.8448 7.64428 22.6927 7.52397 22.6219 7.35573C22.551 7.1875 22.5713 6.99479 22.6755 6.84479C23.3557 5.86563 23.2359 4.54323 22.3911 3.70053C21.9265 3.23594 21.3099 2.98073 20.6531 2.98073C20.137 2.98073 19.6432 3.13803 19.2255 3.43542C19.0765 3.54219 18.8838 3.56406 18.714 3.49479C18.5448 3.425 18.4229 3.27397 18.3911 3.09375C18.1833 1.91928 17.1625 1.06666 15.9625 1.06666C14.7573 1.06666 13.7365 1.92813 13.5354 3.11563C13.5047 3.29532 13.3844 3.4474 13.2167 3.51823C13.0484 3.58803 12.8562 3.56875 12.7057 3.4651C12.2922 3.17866 11.8062 3.0276 11.3005 3.0276C10.6411 3.0276 10.0219 3.28385 9.55624 3.75C8.6974 4.60729 8.59374 5.94272 9.30884 6.92448C9.41718 7.07397 9.44114 7.26823 9.37187 7.43959C9.30207 7.61041 9.14947 7.73334 8.96718 7.76407C7.78332 7.96666 6.92395 8.98125 6.92395 10.1776C6.92395 11.3854 7.78594 12.4083 8.97292 12.6099C9.15312 12.6406 9.30469 12.7609 9.37552 12.9292C9.44635 13.0974 9.42605 13.2901 9.32187 13.4396C8.64375 14.4182 8.76457 15.7412 9.60937 16.586C10.0745 17.0511 10.6932 17.3073 11.3511 17.3073C11.8661 17.3073 12.3583 17.1505 12.775 16.8541C12.8667 16.7886 12.975 16.7552 13.0844 16.7552Z" fill="#17414A"/>
<path d="M16.0005 15.5063C13.0417 15.5063 10.6344 13.1 10.6344 10.1427C10.6344 7.18543 13.0406 4.77917 15.9979 4.77917C18.9573 4.77917 21.3646 7.18543 21.3646 10.1427C21.3646 13.1 18.9584 15.5063 16.0005 15.5063ZM15.9979 5.84585C13.6287 5.84585 11.7011 7.77345 11.7011 10.1427C11.7011 12.512 13.6297 14.4396 16.0005 14.4396C18.3703 14.4396 20.2979 12.512 20.2979 10.1427C20.2979 7.77345 18.3688 5.84585 15.9979 5.84585Z" fill="#17414A"/>
<path d="M16 32C15.7052 32 15.4667 31.7615 15.4667 31.4667V19.75C15.4667 19.4552 15.7052 19.2167 16 19.2167C16.2948 19.2167 16.5334 19.4552 16.5334 19.75V31.4667C16.5334 31.7615 16.2948 32 16 32Z" fill="#17414A"/>
</g>
<defs>
<clipPath id="clip0_395_1482">
<rect width="32" height="32" fill="white"/>
</clipPath>
</defs>
</svg>
