<svg width="32" height="29" viewBox="0 0 32 29" fill="none" xmlns="http://www.w3.org/2000/svg">
<g clip-path="url(#clip0_395_1453)">
<path d="M29.0816 26.2144C29.0816 26.9312 28.416 27.4944 27.5456 27.4944H3.94237C3.12317 27.4944 2.40637 26.9312 2.40637 26.2144V8.44797C2.40637 7.73117 3.07197 7.16797 3.94237 7.16797H27.5456C28.3648 7.16797 29.0816 7.73117 29.0816 8.44797V26.2144Z" fill="#17414A"/>
<path d="M27.5456 28.0064H3.94241C2.81601 28.0064 1.89441 27.1872 1.89441 26.2144V8.44801C1.89441 7.47521 2.81601 6.65601 3.94241 6.65601H27.5456C28.672 6.65601 29.5936 7.47521 29.5936 8.44801V26.2144C29.5936 27.1872 28.672 28.0064 27.5456 28.0064ZM3.94241 7.68001C3.37921 7.68001 2.91841 8.03841 2.91841 8.44801V26.2144C2.91841 26.624 3.37921 26.9824 3.94241 26.9824H27.5456C28.1088 26.9824 28.5696 26.624 28.5696 26.2144V8.44801C28.5696 8.03841 28.1088 7.68001 27.5456 7.68001H3.94241Z" fill="#231C1C"/>
<path d="M31.5904 11.5713C31.5904 12.4417 31.0272 13.1585 30.3104 13.1585L15.7184 6.75846L1.12644 13.1585C0.409636 13.1585 -0.153564 12.4417 -0.153564 11.5713V9.31846C-0.153564 8.44806 0.409636 7.73126 1.12644 7.73126L15.7184 0.358459L30.3104 7.73126C31.0272 7.73126 31.5904 8.44806 31.5904 9.31846V11.5713Z" fill="#FBAD01"/>
<path d="M30.3104 13.6704C30.2592 13.6704 30.1568 13.6704 30.1056 13.6192L15.7184 7.32159L1.33115 13.6192C1.27995 13.6704 1.17755 13.6704 1.12635 13.6704C0.153551 13.6704 -0.665649 12.7488 -0.665649 11.5712V9.31839C-0.665649 8.19199 0.0511508 7.27039 0.972751 7.21919L15.4624 -0.102408C15.616 -0.153608 15.7696 -0.153608 15.9232 -0.102408L30.4128 7.21919C31.3344 7.32159 32.0512 8.19199 32.0512 9.31839V11.5712C32.1024 12.6976 31.3344 13.6704 30.3104 13.6704ZM15.7184 0.921592L1.38235 8.19199C1.33115 8.24319 1.22875 8.24319 1.17755 8.24319C0.767951 8.24319 0.409551 8.75519 0.409551 9.31839V11.5712C0.409551 12.1344 0.716751 12.5952 1.07515 12.6464L15.5648 6.29759C15.7184 6.24639 15.8207 6.24639 15.9743 6.29759L30.4639 12.6464C30.8223 12.5952 31.1296 12.1344 31.1296 11.5712V9.31839C31.1296 8.70399 30.7711 8.24319 30.3615 8.24319C30.2591 8.24319 30.208 8.24319 30.1056 8.19199L15.7184 0.921592Z" fill="#231C1C"/>
<path d="M19.8144 27.5456H12.6976V18.9952C12.6976 18.2784 13.312 17.7664 14.0288 17.7664H18.4832C19.2 17.7664 19.8144 18.2784 19.8144 18.9952V27.5456Z" fill="#FDE8C2"/>
<path d="M19.8145 28.0576H12.6977C12.3905 28.0576 12.1857 27.8528 12.1857 27.5456V18.9952C12.1857 18.0224 12.9537 17.2544 14.0289 17.2544H18.4833C19.5073 17.2544 20.3265 17.9712 20.3265 18.9952V27.4944C20.3265 27.8016 20.1217 28.0576 19.8145 28.0576ZM13.2097 27.0336H19.3025V18.9952C19.3025 18.5344 18.8929 18.2784 18.4833 18.2784H14.0289C13.6193 18.2784 13.2097 18.4832 13.2097 18.9952V27.0336Z" fill="#231C1C"/>
</g>
<defs>
<clipPath id="clip0_395_1453">
<rect width="32" height="28.16" fill="white"/>
</clipPath>
</defs>
</svg>
