<svg width="22" height="32" viewBox="0 0 22 32" fill="none" xmlns="http://www.w3.org/2000/svg">
<path d="M14.1648 0V7.73626H10.6483L12.7582 0H14.1648Z" fill="#3E7682"/>
<path d="M12.7582 0H7.83508V7.73626H12.7582V0Z" fill="#183941"/>
<path d="M14.8681 6.32965H7.13184V10.5494H14.8681V6.32965Z" fill="#17414A"/>
<path d="M19.2637 9.14288H17.1538V32H19.2637C20.4241 32 21.3736 31.0506 21.3736 29.8901V11.2528C21.3736 10.0923 20.4241 9.14288 19.2637 9.14288Z" fill="#17414A"/>
<path d="M17.1538 9.14288H2.73623C1.57579 9.14288 0.626343 10.0923 0.626343 11.2528V29.8901C0.626343 31.0506 1.57579 32 2.73623 32H17.1538C18.3143 32 19.2637 31.0506 19.2637 29.8901V27.7802L17.8571 21.6264L19.2637 15.4726V11.2528C19.2637 10.0923 18.3143 9.14288 17.1538 9.14288Z" fill="#3E7682"/>
<path d="M19.2638 15.4725V27.7802H17.1539L12.9341 21.6264L17.1539 15.4725H19.2638Z" fill="#17414A"/>
<path d="M17.1538 15.4725H2.73621V27.7802H17.1538V15.4725Z" fill="#FBAD01"/>
<path d="M10.9999 3.86814C11.3883 3.86814 11.7032 3.55326 11.7032 3.16484C11.7032 2.77642 11.3883 2.46155 10.9999 2.46155C10.6115 2.46155 10.2966 2.77642 10.2966 3.16484C10.2966 3.55326 10.6115 3.86814 10.9999 3.86814Z" fill="#17414A"/>
<path d="M11.5275 6.32965V15.4725L11 16.1758L10.4725 15.4725V6.32965H11.5275Z" fill="white"/>
<path d="M14.8681 6.85713H7.13184C6.84047 6.85713 6.60437 6.62096 6.60437 6.32966C6.60437 6.03835 6.84047 5.80219 7.13184 5.80219H14.8681C15.1595 5.80219 15.3956 6.03835 15.3956 6.32966C15.3956 6.62096 15.1595 6.85713 14.8681 6.85713Z" fill="#FBAD01"/>
<path d="M11.5275 15.4725V25.6703C11.5275 25.9615 11.2912 26.1978 11 26.1978C10.7088 26.1978 10.4725 25.9615 10.4725 25.6703V15.4725H11.5275Z" fill="#183941"/>
</svg>
