<svg width="24" height="25" viewBox="0 0 24 25" fill="none" xmlns="http://www.w3.org/2000/svg">
<path d="M12 2.5C6.48 2.5 2 6.98 2 12.5C2 18.02 6.48 22.5 12 22.5C17.52 22.5 22 18.02 22 12.5C22 6.98 17.52 2.5 12 2.5ZM17 17.97C15.29 17.97 13.69 17.23 12.41 15.86C10.96 17.17 9.07 17.97 7 17.97C6.59 17.97 6.25 17.63 6.25 17.22C6.25 16.81 6.59 16.47 7 16.47C10.47 16.47 13.34 13.72 13.71 10.2H12H7.01C6.6 10.2 6.26 9.86 6.26 9.45C6.26 9.04 6.6 8.71 7.01 8.71H11.25V7.78C11.25 7.37 11.59 7.03 12 7.03C12.41 7.03 12.75 7.37 12.75 7.78V8.71H14.44C14.46 8.71 14.48 8.7 14.5 8.7C14.52 8.7 14.54 8.71 14.56 8.71H16.99C17.4 8.71 17.74 9.05 17.74 9.46C17.74 9.87 17.4 10.21 16.99 10.21H15.21C15.06 11.92 14.42 13.49 13.44 14.77C14.44 15.88 15.69 16.48 17 16.48C17.41 16.48 17.75 16.82 17.75 17.23C17.75 17.64 17.41 17.97 17 17.97Z" fill="#08242A"/>
</svg>
