<svg version="1.2" xmlns="http://www.w3.org/2000/svg" viewBox="0 0 2000 2000" width="2000" height="2000">
	<title>1b85d564-61d5-4ae8-8dea-5b3c308e6fac</title>
	<style>
		tspan { white-space:pre } 
		.s0 { fill: #fdad02 } 
		.s1 { fill: #e89e00 } 
		.s2 { fill: #ffffff } 
		.s3 { fill: #ffae00 } 
		.s4 { fill: #d39000 } 
	</style>
	<g id="_Artboards_">
	</g>
	<g id="TEXT">
		<g id="&lt;Group&gt;">
			<g id="&lt;Group&gt;">
			</g>
		</g>
	</g>
	<g id="LOGO">
		<g id="&lt;Group&gt;">
			<path id="&lt;Path&gt;" class="s0" d="m722 1279.1c-52.9-52.9-97.9-98-150.8-150.8-18.1-18.1-18.1-47.7 0-65.8l316.3-316.2c59.9-60 157.6-59.9 217.5 0l107.8 107.7-425 425.1c-18.1 18.1-47.7 18.1-65.8 0z"/>
			<path id="&lt;Path&gt;" class="s0" d="m887.5 746.3c59.9-60 157.6-59.9 217.5 0l327.9 327.8c11.8 11.9 11.9 30.7-0.8 43.3-11.7 11.7-30.8 11.7-42.5 0l-60.4-60.4c-11.9-11.9-31.4-11.9-43.3 0-11.9 11.9-11.9 31.4 0 43.3l60.4 60.4c11.9 11.9 11.9 30.6-0.8 43.3-11.7 11.7-30.8 11.7-42.5 0l-105.2-105.2c-11.9-11.9-31.4-11.9-43.3 0-11.9 11.9-11.9 31.4 0 43.3l105.2 105.2c11.9 11.9 11.9 30.6-0.8 43.4-11.8 11.7-30.9 11.7-42.6 0l-327.9-327.9c-59.8-59.8-157.7-59.8-217.5 0q108.3-108.3 216.6-216.5z"/>
			<path id="&lt;Path&gt;" class="s1" d="m996.2 1070.6l-107.8-107.8c-59.7-59.8-157.5-59.8-217.3-0.1l-37 37c59.8-59.7 157.6-59.7 217.4 0.1l107.8 107.8 36.9-37z"/>
			<path id="&lt;Path&gt;" class="s2" d="m651.9 1098.9c-4.9 4.8-12.9 4.8-17.7 0l-18.1-18.1c-4.8-4.8-4.8-12.8 0-17.7 4.9-4.9 12.9-4.9 17.8 0l18 18c4.9 4.9 4.9 12.9 0 17.8z"/>
			<path id="&lt;Path&gt;" class="s2" d="m697 1144c-4.9 4.8-12.9 4.8-17.7 0l-18.1-18.1c-4.8-4.8-4.8-12.8 0-17.7 4.9-4.9 12.9-4.9 17.8 0l18 18c4.9 4.9 4.9 12.9 0 17.8z"/>
			<path id="&lt;Path&gt;" class="s2" d="m742.1 1189c-4.9 4.9-12.9 4.9-17.8 0l-18-18c-4.8-4.9-4.8-12.8 0-17.7 4.9-4.9 12.9-4.9 17.7 0l18.1 18c4.8 4.9 4.8 12.9 0 17.7z"/>
			<path id="&lt;Path&gt;" class="s2" d="m787.2 1234.1c-4.9 4.9-12.9 4.9-17.8 0l-18-18c-4.9-4.9-4.9-12.8 0-17.7 4.9-4.9 12.9-4.9 17.7 0l18.1 18c4.8 4.9 4.8 12.9 0 17.7z"/>
			<path id="&lt;Path&gt;" class="s3" d="m1321.2 962.5c-59.9-59.5-157.5-59.4-217.2 0.3l-107.8 107.8 220.1 220.1c11.7 11.7 30.8 11.7 42.6 0 12.7-12.8 12.7-31.5 0.8-43.4l-105.2-105.2c-11.9-11.9-11.9-31.4 0-43.3 11.9-11.9 31.4-11.9 43.3 0l105.2 105.2c11.7 11.7 30.8 11.7 42.5 0 12.7-12.7 12.6-31.4 0.8-43.3l-60.4-60.4c-11.9-11.9-11.9-31.4 0-43.3 11.9-11.9 31.4-11.9 43.3 0l60.4 60.4c11.7 11.7 30.8 11.7 42.5 0 12.7-12.6 12.6-31.4 0.8-43.3l-111.7-111.6z"/>
			<path id="&lt;Path&gt;" class="s4" d="m1314.3 1128.7c-11.9-11.9-11.9-31.4 0-43.3 11.9-11.9 31.4-11.9 43.3 0l-28.4-28.4c-11.9-11.9-31.4-11.9-43.3 0-11.9 11.9-11.9 31.4 0 43.3z"/>
			<path id="&lt;Path&gt;" class="s4" d="m1182.9 1127.2c11.9-11.9 31.4-11.9 43.3 0l-28.4-28.4c-11.9-11.9-31.4-11.9-43.3 0-11.9 11.9-11.9 31.4 0 43.3l28.4 28.4c-11.9-11.9-11.9-31.4 0-43.3z"/>
		</g>
	</g>
</svg>