<svg width="369" height="186" viewBox="0 0 369 186" fill="none" xmlns="http://www.w3.org/2000/svg">
<mask id="path-1-inside-1_2_1195" fill="white">
<path fill-rule="evenodd" clip-rule="evenodd" d="M92.491 3.49926C90.2008 1.48127 87.3887 0 84.3362 0H9.99999C4.47714 0 0 4.47715 0 10V176C0 181.523 4.47715 186 10 186H80.0372C83.8158 186 87.1547 183.761 89.572 180.857C94.5247 174.907 101.987 171.12 110.333 171.12C118.68 171.12 126.142 174.907 131.095 180.857C133.512 183.761 136.851 186 140.63 186H370C375.523 186 380 181.523 380 176V10C380 4.47715 375.523 0 370 0H136.331C133.278 0 130.466 1.48127 128.176 3.49926C123.418 7.69129 117.173 10.2343 110.333 10.2343C103.494 10.2343 97.2486 7.69129 92.491 3.49926Z"/>
</mask>
<path fill-rule="evenodd" clip-rule="evenodd" d="M92.491 3.49926C90.2008 1.48127 87.3887 0 84.3362 0H9.99999C4.47714 0 0 4.47715 0 10V176C0 181.523 4.47715 186 10 186H80.0372C83.8158 186 87.1547 183.761 89.572 180.857C94.5247 174.907 101.987 171.12 110.333 171.12C118.68 171.12 126.142 174.907 131.095 180.857C133.512 183.761 136.851 186 140.63 186H370C375.523 186 380 181.523 380 176V10C380 4.47715 375.523 0 370 0H136.331C133.278 0 130.466 1.48127 128.176 3.49926C123.418 7.69129 117.173 10.2343 110.333 10.2343C103.494 10.2343 97.2486 7.69129 92.491 3.49926Z" fill="white"/>
<path d="M128.176 3.49926L128.506 3.8744L128.176 3.49926ZM89.572 180.857L89.9563 181.177L89.572 180.857ZM92.491 3.49926L92.8216 3.12411L92.491 3.49926ZM84.3362 -0.5H9.99999V0.5H84.3362V-0.5ZM-0.5 10V176H0.5V10H-0.5ZM10 186.5H80.0372V185.5H10V186.5ZM89.9563 181.177C94.8181 175.336 102.141 171.62 110.333 171.62V170.62C101.832 170.62 94.2314 174.478 89.1878 180.537L89.9563 181.177ZM110.333 171.62C118.525 171.62 125.849 175.336 130.71 181.177L131.479 180.537C126.435 174.478 118.835 170.62 110.333 170.62V171.62ZM140.63 186.5H370V185.5H140.63V186.5ZM380.5 176V10H379.5V176H380.5ZM370 -0.5H136.331V0.5H370V-0.5ZM127.845 3.12411C123.175 7.23878 117.046 9.73428 110.333 9.73428V10.7343C117.299 10.7343 123.661 8.14381 128.506 3.8744L127.845 3.12411ZM110.333 9.73428C103.62 9.73428 97.4913 7.23878 92.8216 3.12411L92.1605 3.8744C97.0058 8.1438 103.368 10.7343 110.333 10.7343V9.73428ZM136.331 -0.5C133.114 -0.5 130.189 1.05898 127.845 3.12411L128.506 3.8744C130.743 1.90357 133.442 0.5 136.331 0.5V-0.5ZM380.5 10C380.5 4.20101 375.799 -0.5 370 -0.5V0.5C375.247 0.5 379.5 4.7533 379.5 10H380.5ZM370 186.5C375.799 186.5 380.5 181.799 380.5 176H379.5C379.5 181.247 375.247 185.5 370 185.5V186.5ZM80.0372 186.5C84.0195 186.5 87.4861 184.145 89.9563 181.177L89.1878 180.537C86.8233 183.378 83.612 185.5 80.0372 185.5V186.5ZM-0.5 176C-0.5 181.799 4.20101 186.5 10 186.5V185.5C4.75329 185.5 0.5 181.247 0.5 176H-0.5ZM9.99999 -0.5C4.201 -0.5 -0.5 4.20101 -0.5 10H0.5C0.5 4.75329 4.75328 0.5 9.99999 0.5V-0.5ZM130.71 181.177C133.181 184.145 136.647 186.5 140.63 186.5V185.5C137.055 185.5 133.843 183.378 131.479 180.537L130.71 181.177ZM84.3362 0.5C87.2246 0.5 89.9238 1.90357 92.1605 3.8744L92.8216 3.12411C90.4779 1.05898 87.5528 -0.5 84.3362 -0.5V0.5Z" fill="#F1F1F1" mask="url(#path-1-inside-1_2_1195)"/>
</svg>
