<svg width="332" height="191" viewBox="0 0 332 191" fill="none" xmlns="http://www.w3.org/2000/svg">
<g filter="url(#filter0_d_2_1194)">
<mask id="path-1-inside-1_2_1194" fill="white">
<path fill-rule="evenodd" clip-rule="evenodd" d="M84.6047 12.4707C82.2147 9.92358 79.0744 8 75.5816 8H18C12.4772 8 8 12.4772 8 18V173C8 178.523 12.4772 183 18 183H74.7175C78.3633 183 81.6115 180.91 84.0197 178.173C88.9678 172.549 96.2186 169 104.298 169C112.378 169 119.629 172.549 124.577 178.173C126.985 180.91 130.233 183 133.879 183H314C319.523 183 324 178.523 324 173V18C324 12.4772 319.523 8 314 8L133.015 8C129.522 8 126.382 9.92359 123.992 12.4707C119.066 17.7205 112.065 21 104.298 21C96.5314 21 89.5304 17.7205 84.6047 12.4707Z"/>
</mask>
<path fill-rule="evenodd" clip-rule="evenodd" d="M84.6047 12.4707C82.2147 9.92358 79.0744 8 75.5816 8H18C12.4772 8 8 12.4772 8 18V173C8 178.523 12.4772 183 18 183H74.7175C78.3633 183 81.6115 180.91 84.0197 178.173C88.9678 172.549 96.2186 169 104.298 169C112.378 169 119.629 172.549 124.577 178.173C126.985 180.91 130.233 183 133.879 183H314C319.523 183 324 178.523 324 173V18C324 12.4772 319.523 8 314 8L133.015 8C129.522 8 126.382 9.92359 123.992 12.4707C119.066 17.7205 112.065 21 104.298 21C96.5314 21 89.5304 17.7205 84.6047 12.4707Z" fill="white"/>
<path d="M123.992 12.4707L124.356 12.8129L123.992 12.4707ZM84.0197 178.173L84.3951 178.503L84.0197 178.173ZM124.577 178.173L124.201 178.503L124.577 178.173ZM84.6047 12.4707L84.9693 12.1286L84.6047 12.4707ZM75.5816 7.5H18V8.5H75.5816V7.5ZM7.5 18V173H8.5V18H7.5ZM18 183.5H74.7175V182.5H18V183.5ZM84.3951 178.503C89.2523 172.983 96.3682 169.5 104.298 169.5V168.5C96.0688 168.5 88.6833 172.115 83.6443 177.843L84.3951 178.503ZM104.298 169.5C112.228 169.5 119.344 172.983 124.201 178.503L124.952 177.843C119.913 172.115 112.528 168.5 104.298 168.5V169.5ZM133.879 183.5H314V182.5H133.879V183.5ZM324.5 173V18H323.5V173H324.5ZM314 7.5H133.015V8.5H314V7.5ZM123.627 12.1286C118.792 17.2819 111.921 20.5 104.298 20.5V21.5C112.209 21.5 119.34 18.1592 124.356 12.8129L123.627 12.1286ZM104.298 20.5C96.6752 20.5 89.8045 17.2819 84.9693 12.1286L84.2401 12.8129C89.2564 18.1592 96.3876 21.5 104.298 21.5V20.5ZM133.015 7.5C129.334 7.5 126.071 9.52411 123.627 12.1286L124.356 12.8129C126.693 10.3231 129.71 8.5 133.015 8.5V7.5ZM324.5 18C324.5 12.201 319.799 7.5 314 7.5V8.5C319.247 8.5 323.5 12.7533 323.5 18H324.5ZM314 183.5C319.799 183.5 324.5 178.799 324.5 173H323.5C323.5 178.247 319.247 182.5 314 182.5V183.5ZM74.7175 183.5C78.5598 183.5 81.9334 181.301 84.3951 178.503L83.6443 177.843C81.2895 180.519 78.1669 182.5 74.7175 182.5V183.5ZM7.5 173C7.5 178.799 12.201 183.5 18 183.5V182.5C12.7533 182.5 8.5 178.247 8.5 173H7.5ZM18 7.5C12.201 7.5 7.5 12.201 7.5 18H8.5C8.5 12.7533 12.7533 8.5 18 8.5V7.5ZM124.201 178.503C126.663 181.301 130.037 183.5 133.879 183.5V182.5C130.43 182.5 127.307 180.519 124.952 177.843L124.201 178.503ZM75.5816 8.5C78.8863 8.5 81.9039 10.3231 84.2401 12.8129L84.9693 12.1286C82.5255 9.5241 79.2625 7.5 75.5816 7.5V8.5Z" fill="#F1F1F1" mask="url(#path-1-inside-1_2_1194)"/>
</g>
<defs>
<filter id="filter0_d_2_1194" x="0.4" y="0.4" width="331.2" height="190.2" filterUnits="userSpaceOnUse" color-interpolation-filters="sRGB">
<feFlood flood-opacity="0" result="BackgroundImageFix"/>
<feColorMatrix in="SourceAlpha" type="matrix" values="0 0 0 0 0 0 0 0 0 0 0 0 0 0 0 0 0 0 127 0" result="hardAlpha"/>
<feOffset/>
<feGaussianBlur stdDeviation="3.8"/>
<feComposite in2="hardAlpha" operator="out"/>
<feColorMatrix type="matrix" values="0 0 0 0 0 0 0 0 0 0 0 0 0 0 0 0 0 0 0.05 0"/>
<feBlend mode="normal" in2="BackgroundImageFix" result="effect1_dropShadow_2_1194"/>
<feBlend mode="normal" in="SourceGraphic" in2="effect1_dropShadow_2_1194" result="shape"/>
</filter>
</defs>
</svg>
